<svg xmlns="http://www.w3.org/2000/svg" xmlns:xlink="http://www.w3.org/1999/xlink" width="500" zoomAndPan="magnify" viewBox="0 0 375 374.999991" height="500" preserveAspectRatio="xMidYMid meet" version="1.0"><defs><g/><clipPath id="eef7bedfb2"><path d="M 130.054688 106.859375 L 259.054688 106.859375 L 259.054688 207.359375 L 130.054688 207.359375 Z M 130.054688 106.859375 " clip-rule="nonzero"/></clipPath></defs><path fill="#f5d0b3" d="M 176.191406 162.085938 C 170.757812 168.664062 160.449219 168.566406 153.269531 166.480469 C 145.066406 164.097656 139.3125 159.050781 138.597656 153.609375 C 138.8125 151.078125 139.253906 148.585938 139.921875 146.136719 C 140.589844 143.6875 141.476562 141.316406 142.578125 139.027344 C 143.679688 136.742188 144.980469 134.570312 146.480469 132.519531 C 147.980469 130.46875 149.652344 128.570312 151.5 126.824219 C 151.960938 126.644531 159.523438 123.75 167.5625 126.234375 C 169.492188 126.828125 171.296875 127.6875 172.976562 128.8125 L 173.046875 128.859375 C 173.433594 129.117188 173.8125 129.386719 174.179688 129.667969 C 175.726562 130.808594 177.113281 132.117188 178.347656 133.585938 C 178.609375 133.90625 178.863281 134.226562 179.101562 134.558594 C 180.324219 136.203125 181.257812 137.996094 181.898438 139.945312 C 182.222656 140.941406 182.460938 141.960938 182.613281 143 C 183.507812 149.207031 181.230469 155.988281 176.191406 162.085938 Z M 176.191406 162.085938 " fill-opacity="1" fill-rule="nonzero"/><path fill="#fff200" d="M 159.851562 174.058594 C 159.855469 173.519531 159.703125 173.03125 159.394531 172.589844 C 159.277344 172.421875 159.140625 172.269531 158.988281 172.132812 C 158.832031 171.996094 158.667969 171.878906 158.484375 171.78125 C 158.304688 171.6875 158.113281 171.613281 157.914062 171.558594 C 157.714844 171.507812 157.511719 171.480469 157.304688 171.476562 C 157.097656 171.472656 156.894531 171.492188 156.695312 171.539062 C 156.492188 171.582031 156.300781 171.652344 156.117188 171.742188 C 155.929688 171.832031 155.757812 171.941406 155.601562 172.074219 C 155.441406 172.207031 155.300781 172.355469 155.179688 172.519531 C 155.054688 172.683594 154.953125 172.859375 154.871094 173.050781 C 154.789062 173.238281 154.734375 173.433594 154.699219 173.636719 C 154.664062 173.839844 154.652344 174.042969 154.667969 174.25 C 154.679688 174.453125 154.71875 174.65625 154.78125 174.851562 C 154.84375 175.046875 154.925781 175.234375 155.03125 175.410156 C 155.136719 175.585938 155.265625 175.746094 155.410156 175.894531 C 155.554688 176.039062 155.710938 176.167969 155.886719 176.277344 C 156.0625 176.386719 156.246094 176.472656 156.441406 176.535156 L 156.632812 173.527344 C 156.644531 173.355469 156.710938 173.214844 156.839844 173.101562 C 156.96875 172.988281 157.117188 172.9375 157.289062 172.945312 C 157.460938 172.957031 157.601562 173.027344 157.714844 173.15625 C 157.828125 173.285156 157.882812 173.433594 157.871094 173.605469 L 157.679688 176.628906 C 157.980469 176.578125 158.269531 176.476562 158.535156 176.324219 C 158.804688 176.171875 159.039062 175.976562 159.238281 175.742188 C 159.4375 175.507812 159.589844 175.242188 159.695312 174.953125 C 159.800781 174.664062 159.855469 174.363281 159.851562 174.058594 Z M 159.851562 174.058594 " fill-opacity="1" fill-rule="nonzero"/><path fill="#f84d46" d="M 154.765625 171.132812 C 154.960938 170.96875 155.167969 170.824219 155.390625 170.703125 C 155.613281 170.578125 155.84375 170.480469 156.085938 170.402344 C 156.328125 170.324219 156.578125 170.273438 156.828125 170.246094 C 157.082031 170.21875 157.335938 170.214844 157.589844 170.238281 C 157.84375 170.257812 158.089844 170.304688 158.335938 170.378906 C 158.578125 170.449219 158.8125 170.542969 159.039062 170.664062 C 159.265625 170.78125 159.476562 170.921875 159.671875 171.082031 C 159.871094 171.242188 160.050781 171.417969 160.210938 171.617188 C 167.710938 171.542969 174.070312 168.222656 177.714844 162.457031 C 177.660156 162.429688 177.609375 162.398438 177.566406 162.371094 C 177.433594 162.539062 177.304688 162.707031 177.160156 162.875 C 173.441406 167.375 167.679688 168.976562 162.015625 168.976562 C 158.925781 168.960938 155.898438 168.523438 152.933594 167.660156 C 145.988281 165.644531 140.699219 161.746094 138.464844 157.230469 C 138.46875 158.945312 138.578125 160.65625 138.792969 162.359375 C 139.554688 163.308594 144.898438 169.34375 154.765625 171.132812 Z M 154.765625 171.132812 " fill-opacity="1" fill-rule="nonzero"/><path fill="#f5d0b3" d="M 167.257812 124.859375 C 168 124.671875 172.058594 123.542969 173.839844 120.214844 C 174.304688 119.339844 174.390625 118.636719 174.082031 118.144531 C 173.367188 116.972656 170.660156 116.757812 169.765625 116.773438 C 169.679688 116.777344 169.597656 116.761719 169.519531 116.730469 C 163.664062 118.292969 158.394531 121 153.71875 124.855469 C 156.71875 124.117188 161.839844 123.367188 167.257812 124.859375 Z M 167.257812 124.859375 " fill-opacity="1" fill-rule="nonzero"/><path fill="#c49a6c" d="M 175.140625 117.5 C 175.695312 118.398438 175.625 119.507812 174.933594 120.796875 C 173.53125 123.410156 171 124.824219 169.257812 125.507812 C 170.839844 126.109375 172.332031 126.882812 173.734375 127.828125 C 176.460938 129.617188 178.753906 131.847656 180.613281 134.527344 L 180.660156 134.527344 C 180.769531 134.546875 191.789062 136.828125 191.832031 147.042969 C 191.832031 149.503906 191.222656 151.007812 189.988281 151.515625 C 189.683594 151.636719 189.367188 151.695312 189.039062 151.691406 C 187.082031 151.691406 184.761719 149.746094 183.808594 148.867188 C 183.171875 153.074219 181.308594 157.351562 178.316406 161.375 C 179.757812 162.222656 185.09375 164.855469 189.640625 160.585938 C 191.304688 159.023438 192.492188 156.824219 193.726562 154.484375 C 193.246094 152.3125 190.789062 140.195312 195.738281 138.625 C 196.410156 138.421875 197.097656 138.363281 197.792969 138.457031 C 198.492188 138.546875 199.136719 138.78125 199.734375 139.152344 C 201.875 140.386719 203.351562 142.804688 203.90625 144.460938 C 204.058594 144.429688 204.21875 144.40625 204.371094 144.382812 C 204.378906 144.351562 204.390625 144.320312 204.402344 144.292969 C 204.515625 144.011719 207.128906 137.4375 198.945312 132.191406 C 196.167969 130.414062 193.464844 128.945312 191.074219 127.652344 C 184.957031 124.335938 180.542969 121.941406 182.207031 117.902344 C 182.644531 116.820312 183.390625 116.03125 184.445312 115.535156 C 183.074219 115.398438 181.6875 115.328125 180.28125 115.324219 C 177.804688 115.324219 175.347656 115.542969 172.910156 115.976562 C 173.8125 116.261719 174.667969 116.726562 175.140625 117.5 Z M 175.140625 117.5 " fill-opacity="1" fill-rule="nonzero"/><path fill="#f5d0b3" d="M 199.117188 140.234375 C 198.671875 139.949219 198.183594 139.773438 197.660156 139.699219 C 197.136719 139.628906 196.621094 139.667969 196.113281 139.824219 C 193.113281 140.773438 193.847656 148.40625 194.644531 152.769531 C 196.472656 149.402344 198.667969 146.046875 202.707031 144.777344 C 202.207031 143.332031 200.851562 141.238281 199.117188 140.234375 Z M 199.117188 140.234375 " fill-opacity="1" fill-rule="nonzero"/><path fill="#f5d0b3" d="M 184.277344 147.613281 C 185.621094 148.964844 188.226562 150.910156 189.511719 150.378906 C 190.410156 150.007812 190.589844 148.367188 190.585938 147.054688 C 190.554688 139.621094 184.195312 136.867188 181.542969 136.042969 C 182.730469 138.160156 183.496094 140.421875 183.84375 142.820312 C 184.0625 144.359375 184.105469 145.898438 183.96875 147.445312 C 184.089844 147.472656 184.191406 147.527344 184.277344 147.613281 Z M 184.277344 147.613281 " fill-opacity="1" fill-rule="nonzero"/><path fill="#f5d0b3" d="M 210.972656 137.886719 C 210.539062 137.996094 210.15625 138.199219 209.816406 138.484375 C 209.480469 138.773438 209.222656 139.125 209.046875 139.53125 C 208.136719 141.613281 208.953125 145.300781 211.472656 150.492188 C 211.746094 151.066406 211.996094 151.5625 211.417969 151.839844 C 211.265625 151.914062 211.105469 151.925781 210.945312 151.871094 C 210.78125 151.816406 210.664062 151.710938 210.589844 151.554688 C 210.570312 151.515625 210.554688 151.476562 210.542969 151.433594 C 210.511719 151.355469 210.429688 151.191406 210.355469 151.035156 C 209.472656 149.277344 208.734375 147.460938 208.144531 145.589844 L 208.125 145.589844 C 206.628906 145.390625 205.144531 145.453125 203.671875 145.78125 L 203.601562 145.800781 L 203.578125 145.800781 C 199.121094 146.917969 197.089844 150.78125 194.964844 154.808594 C 193.6875 157.230469 192.371094 159.734375 190.488281 161.5 C 189.609375 162.359375 188.597656 163.019531 187.460938 163.484375 C 186.320312 163.945312 185.132812 164.175781 183.90625 164.171875 C 182.132812 164.144531 180.441406 163.757812 178.832031 163.015625 C 175.082031 169.023438 168.585938 172.566406 160.90625 172.832031 C 160.996094 173.097656 161.054688 173.367188 161.082031 173.644531 C 161.113281 173.917969 161.109375 174.195312 161.082031 174.472656 C 161.050781 174.746094 160.988281 175.015625 160.898438 175.28125 C 160.808594 175.542969 160.695312 175.792969 160.550781 176.03125 C 160.40625 176.269531 160.238281 176.488281 160.046875 176.691406 C 159.855469 176.890625 159.644531 177.070312 159.414062 177.226562 C 159.183594 177.378906 158.9375 177.507812 158.679688 177.613281 C 158.421875 177.714844 158.15625 177.789062 157.878906 177.832031 C 157.605469 177.878906 157.332031 177.890625 157.050781 177.875 C 156.773438 177.859375 156.5 177.816406 156.234375 177.742188 C 155.964844 177.667969 155.710938 177.566406 155.464844 177.433594 C 155.21875 177.304688 154.988281 177.148438 154.777344 176.96875 C 154.566406 176.789062 154.375 176.589844 154.207031 176.367188 C 154.039062 176.144531 153.898438 175.910156 153.78125 175.65625 C 153.664062 175.40625 153.574219 175.144531 153.515625 174.871094 C 153.457031 174.601562 153.425781 174.328125 153.425781 174.046875 C 153.421875 173.394531 153.574219 172.78125 153.890625 172.207031 C 146.234375 170.652344 141.367188 166.746094 139.144531 164.542969 C 142.671875 184.039062 159.785156 198.871094 180.308594 198.871094 C 203.375 198.871094 222.136719 180.128906 222.136719 157.089844 C 222.132812 153.277344 221.613281 149.535156 220.578125 145.867188 C 220.191406 144.933594 216.425781 136.21875 210.972656 137.886719 Z M 210.972656 137.886719 " fill-opacity="1" fill-rule="nonzero"/><path fill="#fcf0e6" d="M 250.683594 149.59375 L 229.695312 149.59375 C 230.390625 154.1875 230.449219 158.792969 229.867188 163.402344 L 250.683594 163.402344 C 251.136719 163.402344 251.585938 163.359375 252.03125 163.269531 C 252.476562 163.179688 252.90625 163.050781 253.328125 162.875 C 253.746094 162.703125 254.144531 162.492188 254.523438 162.238281 C 254.898438 161.988281 255.25 161.699219 255.570312 161.378906 C 255.890625 161.058594 256.175781 160.710938 256.429688 160.332031 C 256.679688 159.957031 256.894531 159.558594 257.066406 159.140625 C 257.242188 158.722656 257.371094 158.289062 257.460938 157.84375 C 257.550781 157.398438 257.59375 156.953125 257.59375 156.496094 C 257.59375 156.042969 257.550781 155.597656 257.460938 155.152344 C 257.371094 154.707031 257.242188 154.273438 257.066406 153.855469 C 256.894531 153.4375 256.679688 153.039062 256.429688 152.664062 C 256.175781 152.285156 255.890625 151.9375 255.570312 151.617188 C 255.25 151.296875 254.898438 151.007812 254.523438 150.757812 C 254.144531 150.503906 253.746094 150.292969 253.328125 150.121094 C 252.90625 149.945312 252.476562 149.816406 252.03125 149.726562 C 251.585938 149.636719 251.136719 149.59375 250.683594 149.59375 Z M 250.683594 149.59375 " fill-opacity="1" fill-rule="nonzero"/><path fill="#f5d0b3" d="M 188.820312 116.203125 C 188.230469 116.117188 184.46875 115.675781 183.355469 118.378906 C 182.167969 121.25 185.386719 123.160156 191.671875 126.566406 C 194.082031 127.878906 196.808594 129.351562 199.621094 131.152344 C 207.347656 136.113281 206.246094 142.433594 205.722656 144.265625 C 206.421875 144.238281 207.117188 144.253906 207.8125 144.316406 C 207.378906 142.429688 207.265625 140.515625 207.914062 139.035156 C 208.164062 138.460938 208.523438 137.96875 208.996094 137.558594 C 209.472656 137.148438 210.011719 136.863281 210.617188 136.699219 C 213.808594 135.726562 216.410156 137.488281 218.304688 139.683594 C 217.621094 138.203125 216.855469 136.769531 216.003906 135.378906 C 215.152344 133.988281 214.226562 132.652344 213.21875 131.371094 C 212.210938 130.085938 211.132812 128.867188 209.984375 127.710938 C 208.835938 126.554688 207.625 125.46875 206.347656 124.453125 C 205.074219 123.4375 203.742188 122.496094 202.359375 121.636719 C 200.972656 120.777344 199.542969 119.996094 198.066406 119.304688 C 196.59375 118.609375 195.082031 118.003906 193.535156 117.484375 C 191.988281 116.964844 190.417969 116.539062 188.820312 116.203125 Z M 188.820312 116.203125 " fill-opacity="1" fill-rule="nonzero"/><path fill="#e2b79a" d="M 207.054688 129.0625 C 208.386719 133.070312 207.054688 135.554688 204.640625 136.164062 C 205.359375 137.386719 205.8125 138.699219 206 140.105469 C 206.1875 141.511719 206.09375 142.898438 205.71875 144.265625 C 206.414062 144.238281 207.109375 144.253906 207.804688 144.316406 C 207.375 142.429688 207.261719 140.515625 207.910156 139.035156 C 208.15625 138.460938 208.519531 137.96875 208.992188 137.558594 C 209.464844 137.148438 210.003906 136.863281 210.609375 136.699219 C 213.804688 135.726562 216.402344 137.488281 218.300781 139.683594 C 217.617188 138.203125 216.847656 136.769531 216 135.378906 C 215.148438 133.988281 214.21875 132.652344 213.210938 131.367188 C 212.203125 130.085938 211.128906 128.867188 209.976562 127.710938 C 208.828125 126.550781 207.617188 125.464844 206.339844 124.449219 C 205.066406 123.433594 203.734375 122.496094 202.347656 121.636719 C 200.964844 120.773438 199.53125 119.996094 198.058594 119.300781 C 196.582031 118.609375 195.070312 118 193.523438 117.484375 C 191.976562 116.964844 190.402344 116.539062 188.808594 116.203125 C 188.808594 116.203125 205.125 123.277344 207.054688 129.0625 Z M 207.054688 129.0625 " fill-opacity="1" fill-rule="nonzero"/><path fill="#fffaf5" d="M 180.285156 108.425781 C 153.40625 108.425781 131.542969 130.257812 131.542969 157.109375 C 131.542969 183.964844 153.398438 205.792969 180.285156 205.792969 C 207.167969 205.792969 229.023438 183.960938 229.023438 157.109375 C 229.023438 130.261719 207.15625 108.425781 180.285156 108.425781 Z M 221.765625 145.511719 C 221.785156 145.558594 221.796875 145.605469 221.804688 145.652344 C 222.839844 149.402344 223.355469 153.21875 223.355469 157.109375 C 223.355469 180.828125 204.03125 200.128906 180.285156 200.128906 C 158.429688 200.128906 140.320312 183.785156 137.574219 162.6875 C 137.570312 162.675781 137.570312 162.664062 137.574219 162.648438 C 137.332031 160.808594 137.214844 158.964844 137.214844 157.109375 C 137.214844 155.921875 137.261719 154.75 137.359375 153.582031 C 137.359375 153.582031 137.359375 153.558594 137.359375 153.542969 C 139.179688 131.484375 157.734375 114.09375 180.28125 114.09375 C 183.230469 114.089844 186.148438 114.386719 189.039062 114.980469 L 189.125 114.996094 C 189.148438 115 189.167969 115.007812 189.1875 115.011719 C 191.101562 115.421875 192.976562 115.957031 194.816406 116.617188 C 196.660156 117.28125 198.445312 118.066406 200.179688 118.96875 C 201.914062 119.875 203.578125 120.894531 205.175781 122.023438 C 206.769531 123.15625 208.285156 124.390625 209.710938 125.726562 C 211.140625 127.0625 212.472656 128.488281 213.707031 130.003906 C 214.941406 131.519531 216.066406 133.113281 217.082031 134.78125 C 218.101562 136.453125 219 138.179688 219.785156 139.972656 C 220.566406 141.765625 221.222656 143.601562 221.757812 145.480469 Z M 221.765625 145.511719 " fill-opacity="1" fill-rule="nonzero"/><path fill="#dda497" d="M 178.351562 133.585938 L 171.355469 141.09375 C 171.097656 141.371094 170.796875 141.589844 170.453125 141.746094 C 170.105469 141.902344 169.746094 141.988281 169.367188 142.003906 C 168.988281 142.015625 168.621094 141.957031 168.265625 141.824219 C 167.910156 141.691406 167.59375 141.496094 167.3125 141.238281 C 167.035156 140.980469 166.820312 140.679688 166.660156 140.335938 C 166.503906 139.992188 166.417969 139.628906 166.402344 139.25 C 166.390625 138.871094 166.449219 138.503906 166.582031 138.148438 C 166.714844 137.792969 166.910156 137.476562 167.167969 137.199219 L 174.183594 129.667969 C 175.730469 130.808594 177.117188 132.117188 178.351562 133.585938 Z M 178.351562 133.585938 " fill-opacity="1" fill-rule="nonzero"/><path fill="#dda497" d="M 172.976562 128.8125 L 168.5 133.621094 C 168.238281 133.890625 167.9375 134.101562 167.59375 134.25 C 167.25 134.402344 166.890625 134.484375 166.519531 134.492188 C 166.144531 134.503906 165.78125 134.441406 165.429688 134.308594 C 165.078125 134.175781 164.765625 133.984375 164.492188 133.726562 C 164.21875 133.472656 164 133.175781 163.84375 132.835938 C 163.6875 132.496094 163.597656 132.136719 163.582031 131.761719 C 163.566406 131.390625 163.621094 131.027344 163.746094 130.671875 C 163.871094 130.320312 164.0625 130.003906 164.3125 129.726562 L 167.566406 126.234375 C 169.496094 126.828125 171.296875 127.6875 172.976562 128.8125 Z M 172.976562 128.8125 " fill-opacity="1" fill-rule="nonzero"/><path fill="#dda497" d="M 181.902344 139.945312 L 179.296875 142.75 C 179.039062 143.027344 178.738281 143.246094 178.390625 143.402344 C 178.046875 143.558594 177.683594 143.644531 177.304688 143.660156 C 176.925781 143.671875 176.5625 143.613281 176.207031 143.480469 C 175.851562 143.347656 175.535156 143.152344 175.257812 142.894531 C 174.976562 142.636719 174.761719 142.335938 174.601562 141.992188 C 174.445312 141.648438 174.359375 141.289062 174.34375 140.910156 C 174.332031 140.53125 174.390625 140.164062 174.523438 139.808594 C 174.652344 139.453125 174.847656 139.136719 175.105469 138.859375 L 179.105469 134.558594 C 180.332031 136.203125 181.261719 137.996094 181.902344 139.945312 Z M 181.902344 139.945312 " fill-opacity="1" fill-rule="nonzero"/><path fill="#dda497" d="M 183.550781 141.347656 C 184.441406 141.734375 185.25 142.246094 185.976562 142.886719 C 186.703125 143.527344 187.316406 144.261719 187.8125 145.09375 C 188.3125 145.925781 188.667969 146.816406 188.886719 147.757812 C 189.105469 148.703125 189.175781 149.65625 189.09375 150.621094 C 188.601562 150.828125 188.117188 150.707031 187.640625 150.476562 C 185.933594 149.644531 184.632812 148.386719 183.746094 146.707031 C 182.933594 145.164062 183.6875 143.082031 183.550781 141.347656 Z M 183.550781 141.347656 " fill-opacity="1" fill-rule="nonzero"/><path fill="#dda497" d="M 156.386719 124.40625 C 159.363281 121.992188 162.730469 120.40625 166.488281 119.65625 C 167.859375 119.394531 169.351562 119.253906 170.601562 119.882812 C 171.851562 120.511719 172.675781 122.152344 171.980469 123.367188 C 171.105469 124.890625 168.859375 125.023438 167.132812 125.355469 C 163.535156 124.484375 160.046875 123.757812 156.386719 124.40625 Z M 156.386719 124.40625 " fill-opacity="1" fill-rule="nonzero"/><path fill="#dda497" d="M 191.671875 126.566406 L 196.179688 118.457031 C 194.859375 118.039062 190.199219 116.488281 188.824219 116.203125 C 188.234375 116.117188 184.472656 115.675781 183.363281 118.378906 C 182.332031 120.855469 187.011719 123.949219 191.671875 126.566406 Z M 191.671875 126.566406 " fill-opacity="1" fill-rule="nonzero"/><path fill="#dda497" d="M 192.980469 127.855469 L 197.761719 119.152344 L 200.941406 120.789062 L 196.171875 129.0625 Z M 192.980469 127.855469 " fill-opacity="1" fill-rule="nonzero"/><path fill="#dda497" d="M 202.378906 121.644531 L 197.339844 130.203125 L 199.074219 130.808594 L 203.957031 122.679688 Z M 202.378906 121.644531 " fill-opacity="1" fill-rule="nonzero"/><path fill="#e2b79a" d="M 177.714844 160.117188 C 177.714844 160.117188 170.605469 167.761719 154.664062 162.71875 C 137.429688 157.273438 142.433594 139.460938 142.535156 139.117188 C 140.328125 143.707031 139.011719 148.535156 138.585938 153.609375 C 139.304688 159.050781 145.050781 164.097656 153.257812 166.480469 C 160.433594 168.566406 170.742188 168.667969 176.179688 162.085938 C 176.714844 161.4375 177.21875 160.78125 177.691406 160.117188 Z M 177.714844 160.117188 " fill-opacity="1" fill-rule="nonzero"/><path fill="#e2b79a" d="M 153.410156 174.058594 C 153.410156 173.402344 153.5625 172.789062 153.875 172.214844 C 146.222656 170.660156 141.351562 166.753906 139.128906 164.550781 C 139.941406 169.015625 141.4375 173.234375 143.625 177.210938 C 145.8125 181.1875 148.574219 184.710938 151.910156 187.789062 C 138.769531 174.167969 153.410156 174.058594 153.410156 174.058594 Z M 153.410156 174.058594 " fill-opacity="1" fill-rule="nonzero"/><path fill="#e2b79a" d="M 195.546875 154.242188 C 195.546875 154.242188 202.582031 145.1875 209.066406 148.191406 L 208.125 145.597656 C 208.125 145.597656 199.257812 142.742188 195.546875 154.242188 Z M 195.546875 154.242188 " fill-opacity="1" fill-rule="nonzero"/><path fill="#e2b79a" d="M 222.113281 157.109375 C 222.117188 153.292969 221.605469 149.542969 220.578125 145.867188 C 220.261719 145.101562 217.722656 139.199219 213.851562 137.910156 C 213.851562 137.910156 222.6875 146.300781 219.980469 162.707031 C 217.277344 179.113281 204.023438 190.316406 192.113281 194.917969 C 182.742188 198.542969 166.402344 195.132812 166.402344 195.132812 L 162.109375 194.738281 C 167.847656 197.515625 173.902344 198.898438 180.277344 198.894531 C 203.351562 198.894531 222.113281 180.152344 222.113281 157.109375 Z M 222.113281 157.109375 " fill-opacity="1" fill-rule="nonzero"/><path fill="#f9d9bb" d="M 232.550781 149.59375 C 232.550781 149.59375 234.410156 155.5 232.550781 163.402344 L 229.867188 163.402344 L 229.695312 149.59375 Z M 232.550781 149.59375 " fill-opacity="1" fill-rule="nonzero"/><path fill="#754c29" d="M 222.046875 145.605469 C 222.039062 145.539062 222.023438 145.476562 222 145.417969 L 222 145.394531 C 221.460938 143.503906 220.800781 141.660156 220.011719 139.859375 C 219.226562 138.054688 218.320312 136.316406 217.292969 134.636719 C 216.269531 132.960938 215.136719 131.359375 213.894531 129.832031 C 212.652344 128.308594 211.3125 126.875 209.878906 125.53125 C 208.441406 124.191406 206.917969 122.949219 205.3125 121.8125 C 203.707031 120.675781 202.03125 119.652344 200.289062 118.746094 C 198.542969 117.835938 196.746094 117.046875 194.894531 116.382812 C 193.042969 115.71875 191.152344 115.179688 189.230469 114.769531 L 189.171875 114.753906 L 189.085938 114.738281 C 186.183594 114.140625 183.25 113.839844 180.285156 113.839844 C 157.605469 113.839844 138.941406 131.339844 137.113281 153.527344 C 137.113281 153.527344 137.113281 153.550781 137.113281 153.566406 C 137.019531 154.734375 136.96875 155.917969 136.96875 157.109375 C 136.96875 158.738281 137.058594 160.359375 137.242188 161.976562 C 137.425781 163.59375 137.699219 165.195312 138.0625 166.78125 C 138.425781 168.367188 138.878906 169.925781 139.417969 171.460938 C 139.957031 172.996094 140.582031 174.496094 141.292969 175.960938 C 142.003906 177.425781 142.792969 178.84375 143.664062 180.21875 C 144.535156 181.597656 145.480469 182.917969 146.5 184.1875 C 147.519531 185.453125 148.609375 186.664062 149.765625 187.808594 C 150.921875 188.953125 152.140625 190.03125 153.417969 191.039062 C 153.460938 191.09375 153.511719 191.140625 153.566406 191.183594 C 153.699219 191.277344 153.832031 191.375 153.96875 191.46875 C 155.84375 192.90625 157.824219 194.183594 159.910156 195.300781 C 161.996094 196.414062 164.15625 197.351562 166.394531 198.109375 C 168.636719 198.871094 170.921875 199.441406 173.253906 199.824219 C 175.589844 200.207031 177.9375 200.398438 180.300781 200.394531 C 204.1875 200.394531 223.621094 180.980469 223.621094 157.125 C 223.617188 153.210938 223.09375 149.371094 222.046875 145.605469 Z M 217.402344 138.398438 C 215.585938 136.71875 213.273438 135.628906 210.535156 136.464844 C 209.898438 136.636719 209.328125 136.941406 208.824219 137.375 C 208.324219 137.808594 207.945312 138.328125 207.683594 138.9375 C 207.050781 140.386719 207.117188 142.214844 207.496094 144.039062 C 206.992188 144.003906 206.507812 143.992188 206.042969 144.003906 C 206.585938 141.773438 207.195312 135.722656 199.75 130.945312 C 196.9375 129.136719 194.199219 127.652344 191.785156 126.347656 C 185.632812 123.015625 182.476562 121.152344 183.585938 118.457031 C 184.625 115.949219 188.203125 116.355469 188.777344 116.4375 C 191.832031 117.078125 194.777344 118.054688 197.617188 119.359375 C 200.453125 120.664062 203.113281 122.265625 205.589844 124.164062 C 208.066406 126.066406 210.300781 128.21875 212.292969 130.621094 C 214.289062 133.019531 215.992188 135.613281 217.402344 138.398438 Z M 194.753906 152.042969 C 193.914062 147.09375 193.703125 140.84375 196.183594 140.058594 C 196.65625 139.914062 197.136719 139.878906 197.628906 139.949219 C 198.117188 140.015625 198.570312 140.183594 198.984375 140.453125 C 200.566406 141.371094 201.824219 143.234375 202.371094 144.613281 C 198.660156 145.867188 196.515625 148.902344 194.765625 152.042969 Z M 183.65625 115.710938 C 182.886719 116.242188 182.328125 116.945312 181.980469 117.8125 C 181.15625 119.808594 181.714844 121.628906 183.710938 123.386719 C 185.367188 124.847656 187.957031 126.25 190.957031 127.878906 C 193.34375 129.171875 196.046875 130.636719 198.8125 132.410156 C 206.574219 137.390625 204.425781 143.5625 204.191406 144.171875 L 204.070312 144.195312 C 203.449219 142.503906 201.960938 140.171875 199.855469 138.957031 C 199.226562 138.5625 198.542969 138.320312 197.808594 138.226562 C 197.074219 138.132812 196.351562 138.191406 195.644531 138.410156 C 190.554688 140.023438 192.914062 152.042969 193.445312 154.46875 C 192.238281 156.761719 191.078125 158.910156 189.449219 160.425781 C 185.238281 164.371094 180.339844 162.242188 178.652344 161.3125 C 181.464844 157.464844 183.261719 153.398438 183.949219 149.371094 C 185.089844 150.386719 187.160156 151.957031 189.003906 151.957031 C 189.367188 151.960938 189.71875 151.894531 190.054688 151.757812 C 191.390625 151.207031 192.058594 149.621094 192.050781 147.054688 C 192.03125 142.730469 190.046875 139.148438 186.308594 136.691406 C 184.585938 135.566406 182.726562 134.773438 180.726562 134.300781 C 178.863281 131.640625 176.574219 129.414062 173.859375 127.628906 C 172.613281 126.789062 171.296875 126.078125 169.910156 125.5 C 171.636719 124.710938 173.859375 123.320312 175.136719 120.917969 C 175.871094 119.546875 175.9375 118.355469 175.335938 117.371094 C 174.957031 116.792969 174.449219 116.363281 173.8125 116.082031 C 175.953125 115.746094 178.105469 115.578125 180.269531 115.578125 C 181.414062 115.574219 182.542969 115.617188 183.65625 115.710938 Z M 157.304688 172.695312 C 157.066406 172.679688 156.859375 172.753906 156.679688 172.910156 C 156.5 173.070312 156.402344 173.269531 156.386719 173.507812 L 156.214844 176.171875 C 156.054688 176.089844 155.902344 175.992188 155.761719 175.878906 C 155.621094 175.765625 155.496094 175.636719 155.386719 175.492188 C 155.277344 175.347656 155.1875 175.195312 155.113281 175.027344 C 155.039062 174.863281 154.984375 174.691406 154.949219 174.515625 C 154.914062 174.335938 154.898438 174.15625 154.90625 173.976562 C 154.914062 173.796875 154.941406 173.617188 154.988281 173.445312 C 155.035156 173.269531 155.105469 173.105469 155.191406 172.945312 C 155.277344 172.785156 155.378906 172.640625 155.5 172.503906 C 155.621094 172.371094 155.757812 172.25 155.90625 172.144531 C 156.054688 172.042969 156.210938 171.957031 156.378906 171.890625 C 156.546875 171.820312 156.71875 171.773438 156.898438 171.746094 C 157.078125 171.71875 157.257812 171.714844 157.4375 171.726562 C 157.621094 171.742188 157.796875 171.777344 157.96875 171.832031 C 158.140625 171.886719 158.304688 171.960938 158.460938 172.054688 C 158.617188 172.144531 158.757812 172.253906 158.886719 172.382812 C 159.019531 172.507812 159.132812 172.648438 159.230469 172.800781 C 159.328125 172.949219 159.40625 173.113281 159.46875 173.28125 C 159.527344 173.453125 159.566406 173.628906 159.589844 173.808594 C 159.609375 173.988281 159.605469 174.167969 159.585938 174.347656 C 159.5625 174.527344 159.523438 174.703125 159.460938 174.871094 C 159.398438 175.042969 159.316406 175.203125 159.21875 175.351562 C 159.117188 175.503906 159.003906 175.640625 158.871094 175.765625 C 158.742188 175.890625 158.597656 176 158.441406 176.089844 C 158.285156 176.183594 158.121094 176.253906 157.945312 176.308594 L 158.117188 173.613281 C 158.132812 173.375 158.0625 173.167969 157.902344 172.988281 C 157.746094 172.808594 157.546875 172.710938 157.304688 172.695312 Z M 160.335938 171.378906 C 159.992188 170.984375 159.582031 170.667969 159.113281 170.429688 C 158.644531 170.191406 158.148438 170.046875 157.625 170 C 157.101562 169.957031 156.585938 170.007812 156.082031 170.160156 C 155.582031 170.3125 155.125 170.554688 154.714844 170.882812 C 145.164062 169.101562 139.921875 163.339844 139.007812 162.269531 C 138.851562 160.941406 138.753906 159.597656 138.714844 158.230469 C 141.207031 162.4375 146.300781 165.996094 152.855469 167.898438 C 155.839844 168.765625 158.890625 169.203125 162 169.214844 C 166.945312 169.214844 171.992188 167.996094 175.691406 164.714844 C 172.019531 168.902344 166.578125 171.277344 160.335938 171.378906 Z M 184.089844 142.789062 C 183.769531 140.570312 183.089844 138.464844 182.054688 136.476562 C 184.898438 137.480469 190.3125 140.285156 190.335938 147.054688 C 190.335938 148.773438 190.007812 149.902344 189.414062 150.144531 C 188.324219 150.601562 185.808594 148.796875 184.453125 147.4375 C 184.390625 147.375 184.316406 147.320312 184.234375 147.28125 C 184.347656 145.777344 184.300781 144.28125 184.089844 142.789062 Z M 169.519531 116.988281 C 169.601562 117.011719 169.683594 117.023438 169.769531 117.023438 C 171.046875 117 173.289062 117.324219 173.871094 118.273438 C 174.136719 118.691406 174.042969 119.304688 173.609375 120.09375 C 171.949219 123.1875 168.230469 124.34375 167.289062 124.589844 C 162.421875 123.230469 157.839844 123.679688 154.753906 124.328125 C 159.179688 120.882812 164.101562 118.4375 169.519531 116.988281 Z M 151.613281 127.039062 C 152.527344 126.6875 163.464844 122.691406 172.898438 129.0625 C 178.292969 132.699219 181.5625 137.53125 182.359375 143.035156 C 183.246094 149.171875 180.984375 155.882812 175.988281 161.929688 C 170.632812 168.414062 160.433594 168.308594 153.328125 166.246094 C 145.234375 163.894531 139.558594 158.9375 138.84375 153.601562 C 139.058594 151.089844 139.496094 148.621094 140.160156 146.195312 C 140.824219 143.765625 141.699219 141.417969 142.792969 139.148438 C 143.882812 136.878906 145.171875 134.726562 146.65625 132.691406 C 148.140625 130.65625 149.796875 128.773438 151.625 127.039062 Z M 180.285156 198.644531 C 174.59375 198.652344 169.132812 197.53125 163.90625 195.285156 C 164.167969 195.308594 164.433594 195.324219 164.710938 195.324219 C 165.191406 195.324219 165.671875 195.28125 166.144531 195.1875 C 167.722656 194.867188 169.074219 193.925781 169.722656 192.667969 C 170.53125 191.089844 170.28125 189.027344 169.09375 187.390625 C 167.972656 185.84375 166.265625 184.925781 165.078125 184.363281 C 162.773438 183.277344 160.359375 182.578125 157.832031 182.261719 C 157.597656 182.242188 157.394531 182.304688 157.214844 182.453125 C 157.035156 182.597656 156.929688 182.785156 156.902344 183.015625 C 156.871094 183.246094 156.925781 183.453125 157.0625 183.640625 C 157.199219 183.828125 157.382812 183.941406 157.613281 183.980469 C 159.957031 184.277344 162.199219 184.933594 164.335938 185.941406 C 165.347656 186.421875 166.800781 187.199219 167.683594 188.417969 C 168.34375 189.332031 168.753906 190.757812 168.171875 191.886719 C 167.765625 192.675781 166.875 193.28125 165.804688 193.5 C 164.886719 193.683594 163.824219 193.621094 162.453125 193.296875 C 159.785156 192.621094 157.289062 191.539062 154.972656 190.054688 C 152.996094 188.535156 151.167969 186.855469 149.488281 185.007812 C 147.8125 183.164062 146.3125 181.183594 144.992188 179.070312 C 143.671875 176.953125 142.550781 174.738281 141.628906 172.421875 C 140.707031 170.105469 140 167.726562 139.507812 165.285156 C 141.480469 167.078125 143.652344 168.582031 146.03125 169.789062 C 148.40625 171 150.902344 171.875 153.515625 172.414062 C 153.382812 172.710938 153.285156 173.019531 153.230469 173.339844 C 153.171875 173.660156 153.148438 173.980469 153.167969 174.304688 C 153.1875 174.628906 153.242188 174.949219 153.339844 175.257812 C 153.433594 175.570312 153.5625 175.867188 153.726562 176.148438 C 153.894531 176.425781 154.089844 176.683594 154.316406 176.917969 C 154.542969 177.148438 154.792969 177.355469 155.070312 177.527344 C 155.34375 177.699219 155.636719 177.839844 155.945312 177.945312 C 156.253906 178.046875 156.570312 178.113281 156.894531 178.140625 C 157.21875 178.171875 157.542969 178.160156 157.863281 178.109375 C 158.1875 178.0625 158.496094 177.976562 158.800781 177.851562 C 159.101562 177.730469 159.382812 177.574219 159.648438 177.382812 C 159.910156 177.191406 160.148438 176.972656 160.359375 176.726562 C 160.570312 176.480469 160.75 176.210938 160.898438 175.921875 C 161.046875 175.628906 161.15625 175.328125 161.230469 175.011719 C 161.304688 174.695312 161.34375 174.371094 161.339844 174.046875 C 161.339844 173.722656 161.296875 173.402344 161.21875 173.085938 C 168.769531 172.734375 175.15625 169.234375 178.910156 163.355469 C 180.503906 164.058594 182.171875 164.425781 183.914062 164.453125 C 185.179688 164.457031 186.394531 164.21875 187.566406 163.746094 C 188.734375 163.273438 189.773438 162.59375 190.675781 161.710938 C 192.585938 159.917969 193.914062 157.390625 195.199219 154.953125 C 197.878906 149.855469 200.414062 145.046875 207.96875 145.847656 C 208.558594 147.675781 209.28125 149.449219 210.144531 151.167969 C 210.214844 151.3125 210.289062 151.460938 210.324219 151.539062 C 210.359375 151.621094 210.359375 151.636719 210.378906 151.6875 C 210.539062 152.015625 210.800781 152.179688 211.167969 152.175781 C 211.300781 152.175781 211.429688 152.144531 211.546875 152.085938 C 212.335938 151.699219 211.980469 150.953125 211.714844 150.410156 C 208.617188 144.027344 208.6875 141.039062 209.292969 139.652344 C 209.457031 139.277344 209.691406 138.957031 210.003906 138.695312 C 210.316406 138.429688 210.667969 138.246094 211.066406 138.148438 C 216.300781 136.546875 219.960938 145 220.363281 145.984375 C 221.382812 149.628906 221.890625 153.347656 221.886719 157.132812 C 221.867188 180.015625 203.214844 198.644531 180.285156 198.644531 Z M 180.285156 198.644531 " fill-opacity="1" fill-rule="nonzero"/><g clip-path="url(#eef7bedfb2)"><path fill="#754c29" d="M 250.683594 148.109375 L 229.699219 148.109375 C 225.441406 124.726562 204.902344 106.941406 180.285156 106.941406 C 152.589844 106.941406 130.054688 129.445312 130.054688 157.109375 C 130.054688 184.773438 152.589844 207.28125 180.285156 207.28125 C 205.332031 207.28125 226.152344 188.871094 229.90625 164.886719 L 250.683594 164.886719 C 251.234375 164.886719 251.78125 164.835938 252.320312 164.726562 C 252.863281 164.621094 253.386719 164.460938 253.898438 164.25 C 254.40625 164.039062 254.890625 163.78125 255.347656 163.472656 C 255.808594 163.167969 256.230469 162.820312 256.621094 162.429688 C 257.011719 162.042969 257.359375 161.617188 257.667969 161.160156 C 257.972656 160.703125 258.230469 160.21875 258.441406 159.707031 C 258.652344 159.199219 258.8125 158.675781 258.921875 158.136719 C 259.027344 157.59375 259.082031 157.050781 259.082031 156.496094 C 259.082031 155.945312 259.027344 155.402344 258.921875 154.859375 C 258.8125 154.320312 258.652344 153.796875 258.441406 153.289062 C 258.230469 152.777344 257.972656 152.292969 257.667969 151.835938 C 257.359375 151.378906 257.011719 150.953125 256.621094 150.566406 C 256.230469 150.175781 255.808594 149.828125 255.347656 149.523438 C 254.890625 149.214844 254.40625 148.957031 253.898438 148.746094 C 253.386719 148.535156 252.863281 148.375 252.320312 148.269531 C 251.78125 148.160156 251.234375 148.109375 250.683594 148.109375 Z M 180.285156 205.542969 C 153.542969 205.542969 131.789062 183.816406 131.789062 157.109375 C 131.789062 130.40625 153.542969 108.675781 180.285156 108.675781 C 207.023438 108.675781 228.773438 130.402344 228.773438 157.109375 C 228.773438 183.820312 207.019531 205.542969 180.285156 205.542969 Z M 250.683594 163.152344 L 230.144531 163.152344 C 230.679688 158.707031 230.625 154.269531 229.980469 149.839844 L 250.683594 149.839844 C 251.125 149.832031 251.566406 149.867188 252 149.945312 C 252.4375 150.023438 252.859375 150.144531 253.273438 150.308594 C 253.683594 150.472656 254.078125 150.675781 254.449219 150.917969 C 254.820312 151.15625 255.164062 151.433594 255.480469 151.742188 C 255.796875 152.054688 256.078125 152.390625 256.328125 152.757812 C 256.578125 153.125 256.789062 153.511719 256.960938 153.917969 C 257.128906 154.328125 257.261719 154.746094 257.347656 155.183594 C 257.433594 155.617188 257.480469 156.054688 257.480469 156.496094 C 257.480469 156.9375 257.433594 157.378906 257.347656 157.8125 C 257.261719 158.246094 257.128906 158.667969 256.960938 159.074219 C 256.789062 159.484375 256.578125 159.871094 256.328125 160.234375 C 256.078125 160.601562 255.796875 160.941406 255.480469 161.25 C 255.164062 161.558594 254.820312 161.835938 254.449219 162.078125 C 254.078125 162.320312 253.683594 162.519531 253.273438 162.683594 C 252.859375 162.847656 252.4375 162.96875 252 163.046875 C 251.566406 163.125 251.125 163.160156 250.683594 163.152344 Z M 250.683594 163.152344 " fill-opacity="1" fill-rule="nonzero"/></g><path fill="#754c29" d="M 160.363281 145.214844 C 159.835938 145.742188 159.855469 146.707031 160.363281 147.582031 C 160.007812 147.71875 159.65625 147.707031 159.308594 147.546875 C 159.023438 147.386719 158.820312 147.15625 158.695312 146.855469 C 158.566406 146.554688 158.550781 146.246094 158.640625 145.929688 C 158.710938 145.703125 158.695312 145.484375 158.585938 145.273438 C 158.480469 145.058594 158.3125 144.914062 158.085938 144.839844 C 157.859375 144.765625 157.640625 144.78125 157.425781 144.886719 C 157.214844 144.992188 157.066406 145.15625 156.992188 145.378906 C 156.878906 145.730469 156.832031 146.089844 156.847656 146.457031 C 156.863281 146.828125 156.941406 147.179688 157.082031 147.519531 C 157.222656 147.859375 157.417969 148.167969 157.667969 148.4375 C 157.917969 148.710938 158.207031 148.929688 158.535156 149.097656 C 158.957031 149.308594 159.40625 149.410156 159.875 149.410156 C 160.035156 149.410156 160.195312 149.394531 160.351562 149.371094 C 160.304688 150.125 160.503906 150.808594 160.957031 151.414062 C 161.257812 151.792969 161.621094 152.089844 162.058594 152.300781 C 162.492188 152.507812 162.949219 152.613281 163.433594 152.609375 C 163.957031 152.613281 164.449219 152.488281 164.90625 152.234375 C 165.109375 152.117188 165.246094 151.941406 165.308594 151.714844 C 165.367188 151.484375 165.34375 151.269531 165.226562 151.0625 C 165.109375 150.855469 164.941406 150.71875 164.710938 150.652344 C 164.484375 150.585938 164.265625 150.609375 164.058594 150.71875 C 163.765625 150.867188 163.457031 150.90625 163.136719 150.839844 C 162.816406 150.773438 162.550781 150.613281 162.339844 150.363281 C 162.085938 150 162.023438 149.605469 162.144531 149.179688 C 162.933594 149.507812 163.699219 149.46875 164.167969 149.003906 C 164.878906 148.292969 164.601562 146.867188 163.550781 145.816406 C 162.5 144.769531 161.074219 144.503906 160.363281 145.214844 Z M 160.363281 145.214844 " fill-opacity="1" fill-rule="nonzero"/><path fill="#754c29" d="M 169.394531 148.53125 C 169.648438 148.566406 169.894531 148.628906 170.136719 148.71875 C 170.378906 148.808594 170.609375 148.925781 170.824219 149.066406 C 171.039062 149.203125 171.238281 149.367188 171.417969 149.550781 C 171.601562 149.734375 171.757812 149.933594 171.894531 150.152344 C 172.03125 150.371094 172.144531 150.601562 172.230469 150.84375 C 172.316406 151.085938 172.375 151.332031 172.40625 151.589844 C 172.4375 151.84375 172.441406 152.101562 172.417969 152.355469 C 172.394531 152.613281 172.34375 152.863281 172.261719 153.109375 C 172.210938 153.328125 172.238281 153.539062 172.351562 153.734375 C 172.464844 153.933594 172.628906 154.066406 172.84375 154.136719 C 173.0625 154.203125 173.273438 154.191406 173.476562 154.09375 C 173.683594 153.996094 173.828125 153.84375 173.914062 153.632812 C 174.035156 153.269531 174.113281 152.894531 174.148438 152.511719 C 174.183594 152.128906 174.179688 151.746094 174.132812 151.363281 C 174.085938 150.984375 174 150.609375 173.871094 150.25 C 173.742188 149.886719 173.574219 149.542969 173.371094 149.214844 C 173.167969 148.890625 172.929688 148.589844 172.660156 148.316406 C 172.390625 148.042969 172.09375 147.800781 171.769531 147.589844 C 171.449219 147.382812 171.105469 147.210938 170.746094 147.078125 C 170.386719 146.941406 170.015625 146.847656 169.632812 146.796875 C 169.515625 146.773438 169.398438 146.777344 169.285156 146.800781 C 169.167969 146.828125 169.0625 146.875 168.964844 146.945312 C 168.871094 147.015625 168.789062 147.097656 168.730469 147.199219 C 168.667969 147.300781 168.628906 147.410156 168.613281 147.527344 C 168.597656 147.644531 168.605469 147.761719 168.636719 147.875 C 168.667969 147.992188 168.71875 148.09375 168.792969 148.1875 C 168.867188 148.28125 168.953125 148.355469 169.058594 148.410156 C 169.164062 148.46875 169.273438 148.503906 169.394531 148.511719 Z M 169.394531 148.53125 " fill-opacity="1" fill-rule="nonzero"/><path fill="#754c29" d="M 156.757812 135.398438 C 157.015625 135.394531 157.273438 135.414062 157.523438 135.464844 C 157.777344 135.511719 158.023438 135.589844 158.257812 135.691406 C 158.496094 135.792969 158.71875 135.921875 158.925781 136.074219 C 159.136719 136.226562 159.324219 136.398438 159.496094 136.589844 C 159.664062 136.785156 159.8125 136.992188 159.9375 137.21875 C 160.0625 137.445312 160.160156 137.679688 160.234375 137.929688 C 160.308594 138.175781 160.351562 138.425781 160.371094 138.683594 C 160.386719 138.941406 160.375 139.199219 160.335938 139.453125 C 160.300781 139.6875 160.355469 139.902344 160.496094 140.097656 C 160.636719 140.289062 160.828125 140.402344 161.0625 140.441406 L 161.195312 140.441406 C 161.410156 140.441406 161.597656 140.371094 161.761719 140.230469 C 161.921875 140.089844 162.019531 139.917969 162.054688 139.703125 C 162.113281 139.324219 162.128906 138.945312 162.101562 138.5625 C 162.078125 138.175781 162.007812 137.800781 161.902344 137.433594 C 161.792969 137.066406 161.644531 136.710938 161.460938 136.375 C 161.273438 136.039062 161.054688 135.726562 160.800781 135.4375 C 160.546875 135.152344 160.265625 134.894531 159.953125 134.667969 C 159.644531 134.441406 159.3125 134.25 158.960938 134.097656 C 158.609375 133.941406 158.242188 133.828125 157.867188 133.753906 C 157.488281 133.679688 157.109375 133.644531 156.726562 133.65625 C 156.605469 133.652344 156.492188 133.671875 156.378906 133.714844 C 156.269531 133.761719 156.171875 133.824219 156.085938 133.90625 C 156.003906 133.992188 155.9375 134.089844 155.894531 134.199219 C 155.851562 134.308594 155.828125 134.425781 155.832031 134.542969 C 155.835938 134.660156 155.859375 134.773438 155.910156 134.882812 C 155.960938 134.992188 156.027344 135.085938 156.117188 135.164062 C 156.203125 135.246094 156.304688 135.304688 156.417969 135.34375 C 156.53125 135.382812 156.644531 135.398438 156.765625 135.390625 Z M 156.757812 135.398438 " fill-opacity="1" fill-rule="nonzero"/><path fill="#754c29" d="M 189.039062 170.046875 C 187.5625 168.84375 185.675781 168.390625 184.382812 168.15625 C 181.875 167.695312 179.359375 167.636719 176.835938 167.976562 C 176.59375 168.007812 176.398438 168.117188 176.25 168.308594 C 176.101562 168.5 176.042969 168.714844 176.078125 168.957031 C 176.109375 169.195312 176.222656 169.390625 176.417969 169.535156 C 176.609375 169.679688 176.828125 169.734375 177.070312 169.699219 C 179.410156 169.382812 181.746094 169.433594 184.070312 169.863281 C 185.171875 170.0625 186.773438 170.441406 187.945312 171.390625 C 188.820312 172.101562 189.585938 173.375 189.316406 174.613281 C 189.125 175.488281 188.421875 176.296875 187.433594 176.785156 C 186.59375 177.199219 185.550781 177.414062 184.148438 177.453125 C 181.601562 177.527344 179.144531 177.101562 176.773438 176.179688 C 176.550781 176.089844 176.328125 176.09375 176.109375 176.191406 C 175.890625 176.285156 175.738281 176.445312 175.648438 176.667969 C 175.5625 176.890625 175.566406 177.113281 175.660156 177.332031 C 175.757812 177.550781 175.917969 177.703125 176.140625 177.792969 C 178.535156 178.726562 181.019531 179.195312 183.589844 179.199219 C 183.792969 179.199219 184 179.199219 184.203125 179.199219 C 185.253906 179.167969 186.800781 179.042969 188.203125 178.351562 C 189.664062 177.632812 190.714844 176.375 191.015625 174.992188 C 191.394531 173.257812 190.617188 171.320312 189.039062 170.046875 Z M 189.039062 170.046875 " fill-opacity="1" fill-rule="nonzero"/><g fill="#f4dbd6" fill-opacity="1"><g transform="translate(79.74439, 244.151307)"><g><path d="M 11.988281 -21.347656 C 13.355469 -21.347656 14.726562 -21.050781 16.058594 -20.753906 C 17.09375 -20.496094 18.238281 -20.164062 19.3125 -20.164062 C 19.941406 -20.164062 20.273438 -20.460938 20.273438 -21.089844 C 20.273438 -26.824219 16.203125 -26.898438 11.691406 -26.898438 C 6.84375 -26.898438 1.664062 -24.234375 1.664062 -18.792969 C 1.664062 -14.652344 5.84375 -11.765625 9.472656 -10.730469 C 10.542969 -10.433594 11.691406 -10.25 12.617188 -9.582031 C 13.246094 -9.136719 13.46875 -8.582031 13.46875 -7.804688 C 13.46875 -6.140625 11.765625 -5.660156 10.394531 -5.660156 C 8.992188 -5.660156 7.621094 -6.066406 6.289062 -6.472656 C 5.214844 -6.808594 4.070312 -7.289062 2.921875 -7.289062 C 2.515625 -7.289062 2.480469 -6.957031 2.480469 -6.621094 C 2.480469 -0.703125 6.546875 -0.0351562 11.46875 -0.0351562 C 16.464844 -0.0351562 21.164062 -3.402344 21.164062 -8.695312 C 21.164062 -16.871094 9.285156 -15.539062 9.285156 -19.3125 C 9.285156 -20.867188 10.65625 -21.347656 11.988281 -21.347656 Z M 11.988281 -21.347656 "/></g></g></g><g fill="#f4dbd6" fill-opacity="1"><g transform="translate(100.683971, 244.151307)"><g><path d="M 13.023438 -9.914062 C 10.46875 -11.097656 11.023438 -26.269531 6.253906 -26.269531 C 4.328125 -26.269531 2.070312 -26.230469 2.070312 -23.679688 C 2.070312 -20.386719 6.917969 -6.402344 8.621094 -3.183594 C 9.027344 -2.40625 9.582031 -1.664062 10.324219 -1.109375 C 11.0625 -0.554688 11.988281 -0.371094 12.875 -0.371094 C 13.800781 -0.371094 14.835938 -0.445312 15.613281 -0.960938 C 18.5 -2.847656 23.972656 -19.71875 23.972656 -23.382812 C 23.972656 -26.304688 22.496094 -26.230469 20.089844 -26.230469 C 19.535156 -26.230469 18.832031 -26.15625 18.386719 -25.75 C 17.980469 -25.34375 17.648438 -24.675781 17.460938 -24.160156 C 16.761719 -22.199219 14.207031 -10.433594 13.023438 -9.914062 Z M 13.023438 -9.914062 "/></g></g></g><g fill="#f4dbd6" fill-opacity="1"><g transform="translate(124.953203, 244.151307)"><g><path d="M 10.0625 -8.175781 C 10.0625 -8.695312 10.0625 -9.25 10.175781 -9.765625 C 10.25 -10.101562 10.359375 -10.433594 10.617188 -10.65625 C 11.320312 -11.246094 13.132812 -11.136719 14.058594 -11.136719 C 15.242188 -11.136719 18.941406 -10.914062 19.644531 -11.949219 C 19.90625 -12.355469 19.980469 -12.949219 19.980469 -13.429688 C 19.980469 -14.023438 19.980469 -15.09375 19.609375 -15.574219 C 19.015625 -16.351562 17.90625 -16.5 16.980469 -16.5 C 15.871094 -16.5 14.761719 -16.390625 13.652344 -16.390625 C 12.320312 -16.390625 10.101562 -16.5 10.101562 -18.3125 C 10.101562 -20.792969 11.097656 -20.753906 13.207031 -20.753906 C 14.429688 -20.753906 15.648438 -20.570312 16.871094 -20.570312 C 17.980469 -20.570312 20.386719 -20.535156 20.386719 -22.125 C 20.386719 -23.085938 20.238281 -24.195312 19.535156 -24.9375 C 18.351562 -26.195312 16.316406 -26.5625 14.652344 -26.5625 C 6.695312 -26.5625 2.480469 -26.488281 2.480469 -17.167969 C 2.480469 -15.6875 2.515625 -14.242188 2.515625 -12.765625 C 2.515625 -10.953125 2.554688 -9.136719 2.664062 -7.324219 C 2.847656 -4.550781 3.589844 -2.332031 6.328125 -1.222656 C 8.769531 -0.222656 11.839844 -0.445312 14.464844 -0.445312 C 16.871094 -0.445312 20.347656 -1 20.347656 -4.070312 C 20.347656 -5.808594 20.050781 -6.328125 18.238281 -6.328125 C 16.203125 -6.328125 14.132812 -6.214844 12.097656 -6.214844 C 10.765625 -6.214844 10.0625 -6.84375 10.0625 -8.175781 Z M 10.0625 -8.175781 "/></g></g></g><g fill="#f4dbd6" fill-opacity="1"><g transform="translate(145.892782, 244.151307)"><g><path d="M 10.210938 -13.761719 C 10.210938 -14.390625 10.285156 -15.019531 10.324219 -15.648438 C 10.394531 -16.980469 10.46875 -18.3125 10.46875 -19.644531 C 10.46875 -21.570312 10.359375 -26.417969 7.621094 -26.417969 C 5.957031 -26.417969 4.515625 -26.230469 3.625 -24.640625 C 2.515625 -22.640625 2.480469 -15.316406 2.480469 -12.800781 C 2.480469 -10.839844 2.515625 -8.84375 2.664062 -6.882812 C 2.773438 -5.550781 3.070312 -4.21875 3.847656 -3.109375 C 6.03125 0.0742188 12.28125 -0.445312 15.6875 -0.445312 C 17.277344 -0.445312 19.164062 -0.777344 20.3125 -1.996094 C 20.976562 -2.699219 21.125 -3.738281 21.125 -4.699219 C 21.125 -5.84375 20.535156 -6.4375 19.386719 -6.4375 C 17.722656 -6.4375 16.058594 -6.363281 14.355469 -6.363281 C 13.578125 -6.363281 12.765625 -6.4375 12.0625 -6.808594 C 10.101562 -7.84375 10.210938 -11.875 10.210938 -13.761719 Z M 10.210938 -13.761719 "/></g></g></g><g fill="#f4dbd6" fill-opacity="1"><g transform="translate(167.017333, 244.151307)"><g><path d="M 23.160156 -21.976562 C 23.160156 -22.382812 23.050781 -23.9375 22.9375 -24.269531 C 21.941406 -27.007812 13.503906 -26.5625 11.246094 -26.5625 C 9.324219 -26.5625 3.996094 -26.453125 2.625 -25.121094 C 2.070312 -24.566406 1.925781 -22.828125 1.925781 -22.050781 C 1.925781 -18.535156 7.695312 -22.308594 8.433594 -18.351562 C 8.582031 -17.460938 8.621094 -16.539062 8.621094 -15.648438 C 8.621094 -13.761719 8.546875 -11.914062 8.546875 -10.027344 C 8.546875 -8.027344 8.507812 -1.886719 10.359375 -0.777344 C 10.988281 -0.40625 11.914062 -0.445312 12.652344 -0.445312 C 13.503906 -0.445312 14.539062 -0.40625 15.207031 -1.035156 C 16.390625 -2.183594 16.5 -9.878906 16.5 -11.726562 C 16.5 -13.246094 16.425781 -14.726562 16.425781 -16.242188 C 16.425781 -18.460938 16.871094 -20.496094 19.535156 -20.496094 C 20.089844 -20.496094 20.609375 -20.421875 21.164062 -20.421875 C 22.234375 -20.421875 23.160156 -20.71875 23.160156 -21.976562 Z M 23.160156 -21.976562 "/></g></g></g><g fill="#f4dbd6" fill-opacity="1"><g transform="translate(190.176677, 244.151307)"><g><path d="M 6.363281 -0.703125 C 11.582031 -0.703125 6.253906 -5.476562 12.578125 -5.476562 C 20.273438 -5.476562 14.6875 -0.664062 19.089844 -0.664062 C 20.902344 -0.664062 24.046875 -0.664062 24.046875 -3.21875 C 24.046875 -6.84375 18.832031 -22.382812 16.574219 -25.160156 C 15.539062 -26.417969 14.652344 -26.601562 13.097656 -26.601562 C 12.097656 -26.601562 11.359375 -26.601562 10.507812 -26.007812 C 7.695312 -24.121094 2.183594 -7.175781 2.183594 -3.550781 C 2.183594 -0.554688 3.996094 -0.703125 6.363281 -0.703125 Z M 12.800781 -10.804688 C 11.949219 -10.804688 11.171875 -10.988281 11.171875 -11.988281 C 11.171875 -12.800781 12.28125 -18.425781 13.023438 -18.425781 C 13.910156 -18.425781 14.871094 -12.875 14.871094 -12.023438 C 14.871094 -11.246094 14.316406 -10.804688 13.578125 -10.804688 Z M 12.800781 -10.804688 "/></g></g></g><g fill="#f4dbd6" fill-opacity="1"><g transform="translate(214.445909, 244.151307)"><g><path d="M 11.988281 -21.347656 C 13.355469 -21.347656 14.726562 -21.050781 16.058594 -20.753906 C 17.09375 -20.496094 18.238281 -20.164062 19.3125 -20.164062 C 19.941406 -20.164062 20.273438 -20.460938 20.273438 -21.089844 C 20.273438 -26.824219 16.203125 -26.898438 11.691406 -26.898438 C 6.84375 -26.898438 1.664062 -24.234375 1.664062 -18.792969 C 1.664062 -14.652344 5.84375 -11.765625 9.472656 -10.730469 C 10.542969 -10.433594 11.691406 -10.25 12.617188 -9.582031 C 13.246094 -9.136719 13.46875 -8.582031 13.46875 -7.804688 C 13.46875 -6.140625 11.765625 -5.660156 10.394531 -5.660156 C 8.992188 -5.660156 7.621094 -6.066406 6.289062 -6.472656 C 5.214844 -6.808594 4.070312 -7.289062 2.921875 -7.289062 C 2.515625 -7.289062 2.480469 -6.957031 2.480469 -6.621094 C 2.480469 -0.703125 6.546875 -0.0351562 11.46875 -0.0351562 C 16.464844 -0.0351562 21.164062 -3.402344 21.164062 -8.695312 C 21.164062 -16.871094 9.285156 -15.539062 9.285156 -19.3125 C 9.285156 -20.867188 10.65625 -21.347656 11.988281 -21.347656 Z M 11.988281 -21.347656 "/></g></g></g><g fill="#f4dbd6" fill-opacity="1"><g transform="translate(235.385494, 244.151307)"><g><path d="M 23.160156 -21.976562 C 23.160156 -22.382812 23.050781 -23.9375 22.9375 -24.269531 C 21.941406 -27.007812 13.503906 -26.5625 11.246094 -26.5625 C 9.324219 -26.5625 3.996094 -26.453125 2.625 -25.121094 C 2.070312 -24.566406 1.925781 -22.828125 1.925781 -22.050781 C 1.925781 -18.535156 7.695312 -22.308594 8.433594 -18.351562 C 8.582031 -17.460938 8.621094 -16.539062 8.621094 -15.648438 C 8.621094 -13.761719 8.546875 -11.914062 8.546875 -10.027344 C 8.546875 -8.027344 8.507812 -1.886719 10.359375 -0.777344 C 10.988281 -0.40625 11.914062 -0.445312 12.652344 -0.445312 C 13.503906 -0.445312 14.539062 -0.40625 15.207031 -1.035156 C 16.390625 -2.183594 16.5 -9.878906 16.5 -11.726562 C 16.5 -13.246094 16.425781 -14.726562 16.425781 -16.242188 C 16.425781 -18.460938 16.871094 -20.496094 19.535156 -20.496094 C 20.089844 -20.496094 20.609375 -20.421875 21.164062 -20.421875 C 22.234375 -20.421875 23.160156 -20.71875 23.160156 -21.976562 Z M 23.160156 -21.976562 "/></g></g></g><g fill="#f4dbd6" fill-opacity="1"><g transform="translate(258.544844, 244.151307)"><g><path d="M 11.320312 -17.460938 C 11.320312 -19.277344 11.136719 -25.046875 9.472656 -26.046875 C 8.621094 -26.5625 7.917969 -26.527344 6.957031 -26.527344 C 6.253906 -26.527344 5.625 -26.417969 5.03125 -26.082031 C 2.996094 -24.9375 2.921875 -18.019531 2.921875 -15.871094 C 2.921875 -14.28125 2.996094 -12.726562 2.996094 -11.136719 C 2.996094 -9.210938 3.070312 -1.925781 4.808594 -0.925781 C 5.585938 -0.480469 6.546875 -0.445312 7.4375 -0.445312 C 8.769531 -0.445312 9.839844 -1.035156 10.433594 -2.257812 C 11.210938 -3.847656 11.320312 -9.136719 11.320312 -11.023438 Z M 11.320312 -17.460938 "/></g></g></g><g fill="#f4dbd6" fill-opacity="1"><g transform="translate(270.975336, 244.151307)"><g><path d="M 15.019531 -5.773438 C 10.507812 -5.773438 8.546875 -9.65625 8.546875 -13.6875 C 8.546875 -17.5 10.46875 -21.125 14.6875 -21.125 C 16.6875 -21.125 18.535156 -20.273438 20.535156 -20.273438 C 21.273438 -20.273438 21.382812 -20.71875 21.382812 -21.347656 C 21.382812 -22.496094 21.421875 -24.308594 20.609375 -25.195312 C 19.683594 -26.230469 16.464844 -26.75 15.09375 -26.824219 C 14.464844 -26.859375 13.835938 -26.859375 13.207031 -26.859375 C 5.808594 -26.859375 0.8125 -20.609375 0.8125 -13.503906 C 0.8125 -6.140625 5.957031 -0.109375 13.542969 -0.109375 C 15.242188 -0.109375 19.683594 -0.480469 20.902344 -1.703125 C 21.644531 -2.441406 21.71875 -4.476562 21.71875 -5.476562 C 21.71875 -6.402344 21.238281 -6.621094 20.386719 -6.621094 C 18.535156 -6.621094 16.832031 -5.773438 15.019531 -5.773438 Z M 15.019531 -5.773438 "/></g></g></g><g fill="#f4dbd6" fill-opacity="1"><g transform="translate(80.339138, 264.396076)"><g><path d="M 1.375 0 C 1.28125 0 1.195312 -0.03125 1.125 -0.09375 C 1.0625 -0.164062 1.03125 -0.25 1.03125 -0.34375 L 1.03125 -9.453125 C 1.03125 -9.554688 1.0625 -9.640625 1.125 -9.703125 C 1.195312 -9.765625 1.28125 -9.796875 1.375 -9.796875 L 7.625 -9.796875 C 7.726562 -9.796875 7.8125 -9.765625 7.875 -9.703125 C 7.945312 -9.640625 7.984375 -9.554688 7.984375 -9.453125 L 7.984375 -8.25 C 7.984375 -8.15625 7.945312 -8.070312 7.875 -8 C 7.8125 -7.9375 7.726562 -7.90625 7.625 -7.90625 L 3.234375 -7.90625 L 3.234375 -5.546875 L 7.34375 -5.546875 C 7.445312 -5.546875 7.53125 -5.507812 7.59375 -5.4375 C 7.664062 -5.375 7.703125 -5.289062 7.703125 -5.1875 L 7.703125 -4 C 7.703125 -3.90625 7.664062 -3.828125 7.59375 -3.765625 C 7.53125 -3.703125 7.445312 -3.671875 7.34375 -3.671875 L 3.234375 -3.671875 L 3.234375 -0.34375 C 3.234375 -0.25 3.195312 -0.164062 3.125 -0.09375 C 3.0625 -0.03125 2.984375 0 2.890625 0 Z M 1.375 0 "/></g></g></g><g fill="#f4dbd6" fill-opacity="1"><g transform="translate(94.460395, 264.396076)"><g><path d="M 5.046875 0.140625 C 4.222656 0.140625 3.5 0.00390625 2.875 -0.265625 C 2.257812 -0.546875 1.785156 -0.972656 1.453125 -1.546875 C 1.117188 -2.117188 0.953125 -2.847656 0.953125 -3.734375 L 0.953125 -9.453125 C 0.953125 -9.554688 0.984375 -9.640625 1.046875 -9.703125 C 1.109375 -9.765625 1.1875 -9.796875 1.28125 -9.796875 L 2.828125 -9.796875 C 2.929688 -9.796875 3.015625 -9.765625 3.078125 -9.703125 C 3.140625 -9.640625 3.171875 -9.554688 3.171875 -9.453125 L 3.171875 -3.75 C 3.171875 -3.070312 3.332031 -2.5625 3.65625 -2.21875 C 3.988281 -1.882812 4.453125 -1.71875 5.046875 -1.71875 C 5.617188 -1.71875 6.066406 -1.882812 6.390625 -2.21875 C 6.722656 -2.5625 6.890625 -3.070312 6.890625 -3.75 L 6.890625 -9.453125 C 6.890625 -9.554688 6.921875 -9.640625 6.984375 -9.703125 C 7.054688 -9.765625 7.140625 -9.796875 7.234375 -9.796875 L 8.78125 -9.796875 C 8.875 -9.796875 8.953125 -9.765625 9.015625 -9.703125 C 9.078125 -9.640625 9.109375 -9.554688 9.109375 -9.453125 L 9.109375 -3.734375 C 9.109375 -2.847656 8.941406 -2.117188 8.609375 -1.546875 C 8.285156 -0.972656 7.816406 -0.546875 7.203125 -0.265625 C 6.585938 0.00390625 5.867188 0.140625 5.046875 0.140625 Z M 5.046875 0.140625 "/></g></g></g><g fill="#f4dbd6" fill-opacity="1"><g transform="translate(110.120791, 264.396076)"><g><path d="M 1.375 0 C 1.28125 0 1.195312 -0.03125 1.125 -0.09375 C 1.0625 -0.164062 1.03125 -0.25 1.03125 -0.34375 L 1.03125 -9.453125 C 1.03125 -9.554688 1.0625 -9.640625 1.125 -9.703125 C 1.195312 -9.765625 1.28125 -9.796875 1.375 -9.796875 L 7.734375 -9.796875 C 7.828125 -9.796875 7.90625 -9.765625 7.96875 -9.703125 C 8.039062 -9.640625 8.078125 -9.554688 8.078125 -9.453125 L 8.078125 -8.328125 C 8.078125 -8.222656 8.039062 -8.140625 7.96875 -8.078125 C 7.90625 -8.015625 7.828125 -7.984375 7.734375 -7.984375 L 3.1875 -7.984375 L 3.1875 -5.796875 L 7.421875 -5.796875 C 7.523438 -5.796875 7.609375 -5.757812 7.671875 -5.6875 C 7.734375 -5.625 7.765625 -5.546875 7.765625 -5.453125 L 7.765625 -4.40625 C 7.765625 -4.3125 7.734375 -4.226562 7.671875 -4.15625 C 7.609375 -4.09375 7.523438 -4.0625 7.421875 -4.0625 L 3.1875 -4.0625 L 3.1875 -1.8125 L 7.84375 -1.8125 C 7.945312 -1.8125 8.03125 -1.78125 8.09375 -1.71875 C 8.15625 -1.65625 8.1875 -1.570312 8.1875 -1.46875 L 8.1875 -0.34375 C 8.1875 -0.25 8.15625 -0.164062 8.09375 -0.09375 C 8.03125 -0.03125 7.945312 0 7.84375 0 Z M 1.375 0 "/></g></g></g><g fill="#f4dbd6" fill-opacity="1"><g transform="translate(124.54987, 264.396076)"><g><path d="M 1.375 0 C 1.28125 0 1.195312 -0.03125 1.125 -0.09375 C 1.0625 -0.164062 1.03125 -0.25 1.03125 -0.34375 L 1.03125 -9.453125 C 1.03125 -9.554688 1.0625 -9.640625 1.125 -9.703125 C 1.195312 -9.765625 1.28125 -9.796875 1.375 -9.796875 L 2.953125 -9.796875 C 3.046875 -9.796875 3.125 -9.765625 3.1875 -9.703125 C 3.257812 -9.640625 3.296875 -9.554688 3.296875 -9.453125 L 3.296875 -1.890625 L 7.625 -1.890625 C 7.726562 -1.890625 7.8125 -1.851562 7.875 -1.78125 C 7.945312 -1.71875 7.984375 -1.640625 7.984375 -1.546875 L 7.984375 -0.34375 C 7.984375 -0.25 7.945312 -0.164062 7.875 -0.09375 C 7.8125 -0.03125 7.726562 0 7.625 0 Z M 1.375 0 "/></g></g></g><g fill="#f4dbd6" fill-opacity="1"><g transform="translate(138.37729, 264.396076)"><g><path d="M 1.375 0 C 1.28125 0 1.195312 -0.03125 1.125 -0.09375 C 1.0625 -0.164062 1.03125 -0.25 1.03125 -0.34375 L 1.03125 -9.453125 C 1.03125 -9.554688 1.0625 -9.640625 1.125 -9.703125 C 1.195312 -9.765625 1.28125 -9.796875 1.375 -9.796875 L 7.734375 -9.796875 C 7.828125 -9.796875 7.90625 -9.765625 7.96875 -9.703125 C 8.039062 -9.640625 8.078125 -9.554688 8.078125 -9.453125 L 8.078125 -8.328125 C 8.078125 -8.222656 8.039062 -8.140625 7.96875 -8.078125 C 7.90625 -8.015625 7.828125 -7.984375 7.734375 -7.984375 L 3.1875 -7.984375 L 3.1875 -5.796875 L 7.421875 -5.796875 C 7.523438 -5.796875 7.609375 -5.757812 7.671875 -5.6875 C 7.734375 -5.625 7.765625 -5.546875 7.765625 -5.453125 L 7.765625 -4.40625 C 7.765625 -4.3125 7.734375 -4.226562 7.671875 -4.15625 C 7.609375 -4.09375 7.523438 -4.0625 7.421875 -4.0625 L 3.1875 -4.0625 L 3.1875 -1.8125 L 7.84375 -1.8125 C 7.945312 -1.8125 8.03125 -1.78125 8.09375 -1.71875 C 8.15625 -1.65625 8.1875 -1.570312 8.1875 -1.46875 L 8.1875 -0.34375 C 8.1875 -0.25 8.15625 -0.164062 8.09375 -0.09375 C 8.03125 -0.03125 7.945312 0 7.84375 0 Z M 1.375 0 "/></g></g></g><g fill="#f4dbd6" fill-opacity="1"><g transform="translate(152.806372, 264.396076)"><g><path d="M 1.375 0 C 1.28125 0 1.195312 -0.03125 1.125 -0.09375 C 1.0625 -0.164062 1.03125 -0.25 1.03125 -0.34375 L 1.03125 -9.453125 C 1.03125 -9.554688 1.0625 -9.640625 1.125 -9.703125 C 1.195312 -9.765625 1.28125 -9.796875 1.375 -9.796875 L 4.90625 -9.796875 C 5.832031 -9.796875 6.609375 -9.648438 7.234375 -9.359375 C 7.859375 -9.066406 8.335938 -8.632812 8.671875 -8.0625 C 9.003906 -7.5 9.179688 -6.804688 9.203125 -5.984375 C 9.210938 -5.566406 9.21875 -5.203125 9.21875 -4.890625 C 9.21875 -4.585938 9.210938 -4.238281 9.203125 -3.84375 C 9.171875 -2.96875 8.992188 -2.242188 8.671875 -1.671875 C 8.359375 -1.109375 7.894531 -0.6875 7.28125 -0.40625 C 6.675781 -0.132812 5.90625 0 4.96875 0 Z M 3.265625 -1.8125 L 4.90625 -1.8125 C 5.363281 -1.8125 5.738281 -1.878906 6.03125 -2.015625 C 6.332031 -2.148438 6.554688 -2.367188 6.703125 -2.671875 C 6.859375 -2.984375 6.9375 -3.378906 6.9375 -3.859375 C 6.945312 -4.128906 6.953125 -4.367188 6.953125 -4.578125 C 6.960938 -4.796875 6.960938 -5.015625 6.953125 -5.234375 C 6.953125 -5.453125 6.945312 -5.691406 6.9375 -5.953125 C 6.925781 -6.648438 6.75 -7.160156 6.40625 -7.484375 C 6.0625 -7.816406 5.535156 -7.984375 4.828125 -7.984375 L 3.265625 -7.984375 Z M 3.265625 -1.8125 "/></g></g></g><g fill="#f4dbd6" fill-opacity="1"><g transform="translate(168.326843, 264.396076)"><g/></g></g><g fill="#f4dbd6" fill-opacity="1"><g transform="translate(177.019128, 264.396076)"><g><path d="M 1.375 0 C 1.28125 0 1.195312 -0.03125 1.125 -0.09375 C 1.0625 -0.164062 1.03125 -0.25 1.03125 -0.34375 L 1.03125 -9.453125 C 1.03125 -9.554688 1.0625 -9.640625 1.125 -9.703125 C 1.195312 -9.765625 1.28125 -9.796875 1.375 -9.796875 L 5.546875 -9.796875 C 6.316406 -9.796875 6.953125 -9.679688 7.453125 -9.453125 C 7.953125 -9.234375 8.316406 -8.914062 8.546875 -8.5 C 8.785156 -8.09375 8.90625 -7.613281 8.90625 -7.0625 C 8.90625 -6.71875 8.84375 -6.414062 8.71875 -6.15625 C 8.59375 -5.894531 8.4375 -5.679688 8.25 -5.515625 C 8.070312 -5.347656 7.898438 -5.222656 7.734375 -5.140625 C 8.097656 -4.972656 8.414062 -4.691406 8.6875 -4.296875 C 8.96875 -3.910156 9.109375 -3.453125 9.109375 -2.921875 C 9.109375 -2.335938 8.972656 -1.828125 8.703125 -1.390625 C 8.441406 -0.953125 8.054688 -0.609375 7.546875 -0.359375 C 7.035156 -0.117188 6.410156 0 5.671875 0 Z M 3.265625 -1.65625 L 5.40625 -1.65625 C 5.863281 -1.65625 6.207031 -1.78125 6.4375 -2.03125 C 6.675781 -2.289062 6.796875 -2.59375 6.796875 -2.9375 C 6.796875 -3.300781 6.675781 -3.609375 6.4375 -3.859375 C 6.195312 -4.109375 5.851562 -4.234375 5.40625 -4.234375 L 3.265625 -4.234375 Z M 3.265625 -5.84375 L 5.28125 -5.84375 C 5.71875 -5.84375 6.046875 -5.953125 6.265625 -6.171875 C 6.484375 -6.390625 6.59375 -6.671875 6.59375 -7.015625 C 6.59375 -7.359375 6.484375 -7.628906 6.265625 -7.828125 C 6.046875 -8.035156 5.71875 -8.140625 5.28125 -8.140625 L 3.265625 -8.140625 Z M 3.265625 -5.84375 "/></g></g></g><g fill="#f4dbd6" fill-opacity="1"><g transform="translate(192.343704, 264.396076)"><g><path d="M 3.9375 0 C 3.832031 0 3.742188 -0.03125 3.671875 -0.09375 C 3.609375 -0.164062 3.578125 -0.25 3.578125 -0.34375 L 3.578125 -3.4375 L 0.3125 -9.359375 C 0.300781 -9.378906 0.289062 -9.398438 0.28125 -9.421875 C 0.269531 -9.453125 0.265625 -9.476562 0.265625 -9.5 C 0.265625 -9.582031 0.296875 -9.648438 0.359375 -9.703125 C 0.421875 -9.765625 0.488281 -9.796875 0.5625 -9.796875 L 2.0625 -9.796875 C 2.175781 -9.796875 2.269531 -9.765625 2.34375 -9.703125 C 2.425781 -9.640625 2.476562 -9.578125 2.5 -9.515625 L 4.703125 -5.671875 L 6.90625 -9.515625 C 6.925781 -9.578125 6.972656 -9.640625 7.046875 -9.703125 C 7.128906 -9.765625 7.234375 -9.796875 7.359375 -9.796875 L 8.84375 -9.796875 C 8.925781 -9.796875 8.992188 -9.765625 9.046875 -9.703125 C 9.109375 -9.648438 9.140625 -9.582031 9.140625 -9.5 C 9.140625 -9.476562 9.132812 -9.453125 9.125 -9.421875 C 9.125 -9.398438 9.113281 -9.378906 9.09375 -9.359375 L 5.828125 -3.4375 L 5.828125 -0.34375 C 5.828125 -0.25 5.789062 -0.164062 5.71875 -0.09375 C 5.65625 -0.03125 5.570312 0 5.46875 0 Z M 3.9375 0 "/></g></g></g><g fill="#f4dbd6" fill-opacity="1"><g transform="translate(207.346461, 264.396076)"><g/></g></g><g fill="#f4dbd6" fill-opacity="1"><g transform="translate(216.03874, 264.396076)"><g><path d="M 4.921875 0.140625 C 4.054688 0.140625 3.316406 -0.00390625 2.703125 -0.296875 C 2.085938 -0.585938 1.609375 -1.015625 1.265625 -1.578125 C 0.929688 -2.148438 0.75 -2.84375 0.71875 -3.65625 C 0.707031 -4.039062 0.703125 -4.453125 0.703125 -4.890625 C 0.703125 -5.328125 0.707031 -5.742188 0.71875 -6.140625 C 0.75 -6.941406 0.9375 -7.625 1.28125 -8.1875 C 1.625 -8.757812 2.101562 -9.191406 2.71875 -9.484375 C 3.332031 -9.785156 4.066406 -9.9375 4.921875 -9.9375 C 5.554688 -9.9375 6.128906 -9.859375 6.640625 -9.703125 C 7.148438 -9.546875 7.59375 -9.316406 7.96875 -9.015625 C 8.34375 -8.710938 8.632812 -8.359375 8.84375 -7.953125 C 9.050781 -7.554688 9.160156 -7.113281 9.171875 -6.625 C 9.179688 -6.539062 9.15625 -6.46875 9.09375 -6.40625 C 9.03125 -6.351562 8.957031 -6.328125 8.875 -6.328125 L 7.265625 -6.328125 C 7.148438 -6.328125 7.0625 -6.351562 7 -6.40625 C 6.9375 -6.457031 6.882812 -6.546875 6.84375 -6.671875 C 6.707031 -7.234375 6.472656 -7.613281 6.140625 -7.8125 C 5.816406 -8.019531 5.410156 -8.125 4.921875 -8.125 C 4.359375 -8.125 3.90625 -7.960938 3.5625 -7.640625 C 3.226562 -7.328125 3.050781 -6.804688 3.03125 -6.078125 C 3 -5.304688 3 -4.519531 3.03125 -3.71875 C 3.050781 -2.988281 3.226562 -2.46875 3.5625 -2.15625 C 3.90625 -1.84375 4.359375 -1.6875 4.921875 -1.6875 C 5.410156 -1.6875 5.820312 -1.785156 6.15625 -1.984375 C 6.488281 -2.191406 6.71875 -2.570312 6.84375 -3.125 C 6.882812 -3.25 6.9375 -3.335938 7 -3.390625 C 7.0625 -3.441406 7.148438 -3.46875 7.265625 -3.46875 L 8.875 -3.46875 C 8.957031 -3.46875 9.03125 -3.4375 9.09375 -3.375 C 9.15625 -3.320312 9.179688 -3.253906 9.171875 -3.171875 C 9.160156 -2.679688 9.050781 -2.234375 8.84375 -1.828125 C 8.632812 -1.429688 8.34375 -1.082031 7.96875 -0.78125 C 7.59375 -0.488281 7.148438 -0.257812 6.640625 -0.09375 C 6.128906 0.0625 5.554688 0.140625 4.921875 0.140625 Z M 4.921875 0.140625 "/></g></g></g><g fill="#f4dbd6" fill-opacity="1"><g transform="translate(231.335336, 264.396076)"><g><path d="M 0.46875 0 C 0.382812 0 0.3125 -0.03125 0.25 -0.09375 C 0.195312 -0.15625 0.171875 -0.222656 0.171875 -0.296875 C 0.171875 -0.335938 0.175781 -0.378906 0.1875 -0.421875 L 3.515625 -9.421875 C 3.546875 -9.523438 3.601562 -9.613281 3.6875 -9.6875 C 3.769531 -9.757812 3.882812 -9.796875 4.03125 -9.796875 L 5.828125 -9.796875 C 5.972656 -9.796875 6.085938 -9.757812 6.171875 -9.6875 C 6.253906 -9.613281 6.316406 -9.523438 6.359375 -9.421875 L 9.671875 -0.421875 C 9.691406 -0.378906 9.703125 -0.335938 9.703125 -0.296875 C 9.703125 -0.222656 9.671875 -0.15625 9.609375 -0.09375 C 9.546875 -0.03125 9.472656 0 9.390625 0 L 7.921875 0 C 7.796875 0 7.695312 -0.03125 7.625 -0.09375 C 7.5625 -0.164062 7.519531 -0.226562 7.5 -0.28125 L 6.90625 -1.84375 L 2.953125 -1.84375 L 2.359375 -0.28125 C 2.335938 -0.226562 2.296875 -0.164062 2.234375 -0.09375 C 2.171875 -0.03125 2.070312 0 1.9375 0 Z M 3.484375 -3.65625 L 6.375 -3.65625 L 4.921875 -7.671875 Z M 3.484375 -3.65625 "/></g></g></g><g fill="#f4dbd6" fill-opacity="1"><g transform="translate(246.785842, 264.396076)"><g><path d="M 3.546875 0 C 3.441406 0 3.351562 -0.03125 3.28125 -0.09375 C 3.21875 -0.164062 3.1875 -0.25 3.1875 -0.34375 L 3.1875 -7.84375 L 0.640625 -7.84375 C 0.546875 -7.84375 0.46875 -7.875 0.40625 -7.9375 C 0.34375 -8 0.3125 -8.082031 0.3125 -8.1875 L 0.3125 -9.453125 C 0.3125 -9.554688 0.34375 -9.640625 0.40625 -9.703125 C 0.46875 -9.765625 0.546875 -9.796875 0.640625 -9.796875 L 7.984375 -9.796875 C 8.085938 -9.796875 8.171875 -9.765625 8.234375 -9.703125 C 8.296875 -9.640625 8.328125 -9.554688 8.328125 -9.453125 L 8.328125 -8.1875 C 8.328125 -8.082031 8.296875 -8 8.234375 -7.9375 C 8.171875 -7.875 8.085938 -7.84375 7.984375 -7.84375 L 5.453125 -7.84375 L 5.453125 -0.34375 C 5.453125 -0.25 5.414062 -0.164062 5.34375 -0.09375 C 5.28125 -0.03125 5.195312 0 5.09375 0 Z M 3.546875 0 "/></g></g></g><g fill="#f4dbd6" fill-opacity="1"><g transform="translate(261.01903, 264.396076)"><g><path d="M 4.5625 0.140625 C 3.664062 0.140625 2.914062 0.0078125 2.3125 -0.25 C 1.707031 -0.507812 1.25 -0.847656 0.9375 -1.265625 C 0.632812 -1.691406 0.476562 -2.144531 0.46875 -2.625 C 0.46875 -2.707031 0.492188 -2.773438 0.546875 -2.828125 C 0.597656 -2.878906 0.664062 -2.90625 0.75 -2.90625 L 2.265625 -2.90625 C 2.390625 -2.90625 2.484375 -2.878906 2.546875 -2.828125 C 2.609375 -2.785156 2.671875 -2.726562 2.734375 -2.65625 C 2.796875 -2.488281 2.898438 -2.328125 3.046875 -2.171875 C 3.191406 -2.023438 3.382812 -1.90625 3.625 -1.8125 C 3.875 -1.726562 4.1875 -1.6875 4.5625 -1.6875 C 5.164062 -1.6875 5.617188 -1.78125 5.921875 -1.96875 C 6.234375 -2.164062 6.390625 -2.429688 6.390625 -2.765625 C 6.390625 -3.003906 6.304688 -3.195312 6.140625 -3.34375 C 5.972656 -3.488281 5.710938 -3.625 5.359375 -3.75 C 5.015625 -3.875 4.550781 -4 3.96875 -4.125 C 3.269531 -4.289062 2.675781 -4.488281 2.1875 -4.71875 C 1.695312 -4.957031 1.328125 -5.265625 1.078125 -5.640625 C 0.835938 -6.023438 0.71875 -6.5 0.71875 -7.0625 C 0.71875 -7.613281 0.867188 -8.109375 1.171875 -8.546875 C 1.484375 -8.984375 1.914062 -9.320312 2.46875 -9.5625 C 3.03125 -9.8125 3.703125 -9.9375 4.484375 -9.9375 C 5.109375 -9.9375 5.660156 -9.851562 6.140625 -9.6875 C 6.617188 -9.519531 7.019531 -9.300781 7.34375 -9.03125 C 7.664062 -8.757812 7.910156 -8.46875 8.078125 -8.15625 C 8.242188 -7.851562 8.332031 -7.554688 8.34375 -7.265625 C 8.34375 -7.179688 8.316406 -7.109375 8.265625 -7.046875 C 8.210938 -6.984375 8.140625 -6.953125 8.046875 -6.953125 L 6.484375 -6.953125 C 6.390625 -6.953125 6.304688 -6.96875 6.234375 -7 C 6.160156 -7.039062 6.09375 -7.109375 6.03125 -7.203125 C 5.988281 -7.460938 5.828125 -7.679688 5.546875 -7.859375 C 5.273438 -8.035156 4.921875 -8.125 4.484375 -8.125 C 4.023438 -8.125 3.660156 -8.039062 3.390625 -7.875 C 3.128906 -7.707031 3 -7.453125 3 -7.109375 C 3 -6.890625 3.066406 -6.703125 3.203125 -6.546875 C 3.347656 -6.390625 3.578125 -6.253906 3.890625 -6.140625 C 4.210938 -6.023438 4.644531 -5.898438 5.1875 -5.765625 C 5.988281 -5.597656 6.644531 -5.394531 7.15625 -5.15625 C 7.675781 -4.914062 8.054688 -4.613281 8.296875 -4.25 C 8.546875 -3.882812 8.671875 -3.421875 8.671875 -2.859375 C 8.671875 -2.234375 8.492188 -1.695312 8.140625 -1.25 C 7.796875 -0.800781 7.316406 -0.457031 6.703125 -0.21875 C 6.085938 0.0195312 5.375 0.140625 4.5625 0.140625 Z M 4.5625 0.140625 "/></g></g></g><g fill="#f4dbd6" fill-opacity="1"><g transform="translate(275.741956, 264.396076)"><g/></g></g><g fill="#f4dbd6" fill-opacity="1"><g transform="translate(284.434247, 264.396076)"><g><path d="M 4.140625 0.140625 C 3.441406 0.140625 2.832031 0.0234375 2.3125 -0.203125 C 1.789062 -0.429688 1.382812 -0.757812 1.09375 -1.1875 C 0.800781 -1.613281 0.65625 -2.117188 0.65625 -2.703125 C 0.65625 -3.109375 0.734375 -3.46875 0.890625 -3.78125 C 1.054688 -4.101562 1.285156 -4.394531 1.578125 -4.65625 C 1.867188 -4.914062 2.203125 -5.148438 2.578125 -5.359375 C 2.191406 -5.773438 1.914062 -6.148438 1.75 -6.484375 C 1.59375 -6.816406 1.515625 -7.160156 1.515625 -7.515625 C 1.515625 -7.941406 1.625 -8.335938 1.84375 -8.703125 C 2.070312 -9.066406 2.40625 -9.363281 2.84375 -9.59375 C 3.28125 -9.820312 3.816406 -9.9375 4.453125 -9.9375 C 5.046875 -9.9375 5.550781 -9.828125 5.96875 -9.609375 C 6.394531 -9.390625 6.71875 -9.097656 6.9375 -8.734375 C 7.164062 -8.367188 7.28125 -7.972656 7.28125 -7.546875 C 7.28125 -7.160156 7.195312 -6.816406 7.03125 -6.515625 C 6.863281 -6.210938 6.625 -5.9375 6.3125 -5.6875 C 6.007812 -5.445312 5.671875 -5.21875 5.296875 -5 L 7.125 -3.171875 C 7.21875 -3.328125 7.332031 -3.539062 7.46875 -3.8125 C 7.613281 -4.09375 7.742188 -4.457031 7.859375 -4.90625 C 7.878906 -5.050781 7.972656 -5.125 8.140625 -5.125 L 9.359375 -5.125 C 9.441406 -5.125 9.507812 -5.097656 9.5625 -5.046875 C 9.613281 -4.992188 9.640625 -4.925781 9.640625 -4.84375 C 9.640625 -4.664062 9.597656 -4.457031 9.515625 -4.21875 C 9.441406 -3.976562 9.335938 -3.726562 9.203125 -3.46875 C 9.078125 -3.207031 8.9375 -2.953125 8.78125 -2.703125 C 8.625 -2.453125 8.460938 -2.21875 8.296875 -2 L 9.828125 -0.46875 C 9.890625 -0.382812 9.921875 -0.3125 9.921875 -0.25 C 9.921875 -0.175781 9.894531 -0.113281 9.84375 -0.0625 C 9.800781 -0.0195312 9.738281 0 9.65625 0 L 8.046875 0 C 7.953125 0 7.875 -0.015625 7.8125 -0.046875 C 7.757812 -0.078125 7.710938 -0.109375 7.671875 -0.140625 L 6.96875 -0.8125 C 6.59375 -0.5 6.175781 -0.257812 5.71875 -0.09375 C 5.257812 0.0625 4.734375 0.140625 4.140625 0.140625 Z M 4.140625 -1.46875 C 4.453125 -1.46875 4.742188 -1.519531 5.015625 -1.625 C 5.296875 -1.726562 5.550781 -1.882812 5.78125 -2.09375 L 3.71875 -4.125 C 3.4375 -3.96875 3.1875 -3.78125 2.96875 -3.5625 C 2.757812 -3.34375 2.65625 -3.078125 2.65625 -2.765625 C 2.65625 -2.492188 2.726562 -2.257812 2.875 -2.0625 C 3.019531 -1.875 3.203125 -1.726562 3.421875 -1.625 C 3.648438 -1.519531 3.890625 -1.46875 4.140625 -1.46875 Z M 4.203125 -6.171875 C 4.429688 -6.296875 4.644531 -6.421875 4.84375 -6.546875 C 5.039062 -6.671875 5.191406 -6.8125 5.296875 -6.96875 C 5.410156 -7.125 5.46875 -7.296875 5.46875 -7.484375 C 5.46875 -7.773438 5.375 -8.003906 5.1875 -8.171875 C 5 -8.335938 4.753906 -8.421875 4.453125 -8.421875 C 4.179688 -8.421875 3.941406 -8.335938 3.734375 -8.171875 C 3.535156 -8.003906 3.4375 -7.773438 3.4375 -7.484375 C 3.4375 -7.359375 3.457031 -7.234375 3.5 -7.109375 C 3.539062 -6.984375 3.617188 -6.84375 3.734375 -6.6875 C 3.859375 -6.539062 4.015625 -6.367188 4.203125 -6.171875 Z M 4.203125 -6.171875 "/></g></g></g><g fill="#f4dbd6" fill-opacity="1"><g transform="translate(146.37429, 280.896075)"><g><path d="M 4.921875 0.140625 C 4.054688 0.140625 3.316406 -0.00390625 2.703125 -0.296875 C 2.085938 -0.585938 1.609375 -1.015625 1.265625 -1.578125 C 0.929688 -2.148438 0.75 -2.84375 0.71875 -3.65625 C 0.707031 -4.039062 0.703125 -4.453125 0.703125 -4.890625 C 0.703125 -5.328125 0.707031 -5.742188 0.71875 -6.140625 C 0.75 -6.941406 0.9375 -7.625 1.28125 -8.1875 C 1.625 -8.757812 2.101562 -9.191406 2.71875 -9.484375 C 3.332031 -9.785156 4.066406 -9.9375 4.921875 -9.9375 C 5.554688 -9.9375 6.128906 -9.859375 6.640625 -9.703125 C 7.148438 -9.546875 7.59375 -9.316406 7.96875 -9.015625 C 8.34375 -8.710938 8.632812 -8.359375 8.84375 -7.953125 C 9.050781 -7.554688 9.160156 -7.113281 9.171875 -6.625 C 9.179688 -6.539062 9.15625 -6.46875 9.09375 -6.40625 C 9.03125 -6.351562 8.957031 -6.328125 8.875 -6.328125 L 7.265625 -6.328125 C 7.148438 -6.328125 7.0625 -6.351562 7 -6.40625 C 6.9375 -6.457031 6.882812 -6.546875 6.84375 -6.671875 C 6.707031 -7.234375 6.472656 -7.613281 6.140625 -7.8125 C 5.816406 -8.019531 5.410156 -8.125 4.921875 -8.125 C 4.359375 -8.125 3.90625 -7.960938 3.5625 -7.640625 C 3.226562 -7.328125 3.050781 -6.804688 3.03125 -6.078125 C 3 -5.304688 3 -4.519531 3.03125 -3.71875 C 3.050781 -2.988281 3.226562 -2.46875 3.5625 -2.15625 C 3.90625 -1.84375 4.359375 -1.6875 4.921875 -1.6875 C 5.410156 -1.6875 5.820312 -1.785156 6.15625 -1.984375 C 6.488281 -2.191406 6.71875 -2.570312 6.84375 -3.125 C 6.882812 -3.25 6.9375 -3.335938 7 -3.390625 C 7.0625 -3.441406 7.148438 -3.46875 7.265625 -3.46875 L 8.875 -3.46875 C 8.957031 -3.46875 9.03125 -3.4375 9.09375 -3.375 C 9.15625 -3.320312 9.179688 -3.253906 9.171875 -3.171875 C 9.160156 -2.679688 9.050781 -2.234375 8.84375 -1.828125 C 8.632812 -1.429688 8.34375 -1.082031 7.96875 -0.78125 C 7.59375 -0.488281 7.148438 -0.257812 6.640625 -0.09375 C 6.128906 0.0625 5.554688 0.140625 4.921875 0.140625 Z M 4.921875 0.140625 "/></g></g></g><g fill="#f4dbd6" fill-opacity="1"><g transform="translate(161.67089, 280.896075)"><g><path d="M 4.921875 0.140625 C 4.078125 0.140625 3.347656 0 2.734375 -0.28125 C 2.117188 -0.5625 1.632812 -0.984375 1.28125 -1.546875 C 0.9375 -2.109375 0.753906 -2.820312 0.734375 -3.6875 C 0.722656 -4.082031 0.71875 -4.476562 0.71875 -4.875 C 0.71875 -5.269531 0.722656 -5.675781 0.734375 -6.09375 C 0.753906 -6.925781 0.9375 -7.628906 1.28125 -8.203125 C 1.632812 -8.785156 2.125 -9.21875 2.75 -9.5 C 3.375 -9.789062 4.097656 -9.9375 4.921875 -9.9375 C 5.742188 -9.9375 6.460938 -9.789062 7.078125 -9.5 C 7.703125 -9.21875 8.191406 -8.785156 8.546875 -8.203125 C 8.910156 -7.628906 9.101562 -6.925781 9.125 -6.09375 C 9.144531 -5.675781 9.15625 -5.269531 9.15625 -4.875 C 9.15625 -4.476562 9.144531 -4.082031 9.125 -3.6875 C 9.101562 -2.820312 8.914062 -2.109375 8.5625 -1.546875 C 8.207031 -0.984375 7.722656 -0.5625 7.109375 -0.28125 C 6.492188 0 5.765625 0.140625 4.921875 0.140625 Z M 4.921875 -1.6875 C 5.460938 -1.6875 5.910156 -1.847656 6.265625 -2.171875 C 6.617188 -2.492188 6.800781 -3.019531 6.8125 -3.75 C 6.832031 -4.164062 6.84375 -4.550781 6.84375 -4.90625 C 6.84375 -5.269531 6.832031 -5.648438 6.8125 -6.046875 C 6.800781 -6.535156 6.710938 -6.929688 6.546875 -7.234375 C 6.378906 -7.546875 6.15625 -7.769531 5.875 -7.90625 C 5.601562 -8.050781 5.285156 -8.125 4.921875 -8.125 C 4.566406 -8.125 4.25 -8.050781 3.96875 -7.90625 C 3.695312 -7.769531 3.472656 -7.546875 3.296875 -7.234375 C 3.128906 -6.929688 3.039062 -6.535156 3.03125 -6.046875 C 3.019531 -5.648438 3.015625 -5.269531 3.015625 -4.90625 C 3.015625 -4.550781 3.019531 -4.164062 3.03125 -3.75 C 3.050781 -3.019531 3.234375 -2.492188 3.578125 -2.171875 C 3.929688 -1.847656 4.378906 -1.6875 4.921875 -1.6875 Z M 4.921875 -1.6875 "/></g></g></g><g fill="#f4dbd6" fill-opacity="1"><g transform="translate(177.107406, 280.896075)"><g><path d="M 1.375 0 C 1.28125 0 1.195312 -0.03125 1.125 -0.09375 C 1.0625 -0.164062 1.03125 -0.25 1.03125 -0.34375 L 1.03125 -9.453125 C 1.03125 -9.554688 1.0625 -9.640625 1.125 -9.703125 C 1.195312 -9.765625 1.28125 -9.796875 1.375 -9.796875 L 7.625 -9.796875 C 7.726562 -9.796875 7.8125 -9.765625 7.875 -9.703125 C 7.945312 -9.640625 7.984375 -9.554688 7.984375 -9.453125 L 7.984375 -8.25 C 7.984375 -8.15625 7.945312 -8.070312 7.875 -8 C 7.8125 -7.9375 7.726562 -7.90625 7.625 -7.90625 L 3.234375 -7.90625 L 3.234375 -5.546875 L 7.34375 -5.546875 C 7.445312 -5.546875 7.53125 -5.507812 7.59375 -5.4375 C 7.664062 -5.375 7.703125 -5.289062 7.703125 -5.1875 L 7.703125 -4 C 7.703125 -3.90625 7.664062 -3.828125 7.59375 -3.765625 C 7.53125 -3.703125 7.445312 -3.671875 7.34375 -3.671875 L 3.234375 -3.671875 L 3.234375 -0.34375 C 3.234375 -0.25 3.195312 -0.164062 3.125 -0.09375 C 3.0625 -0.03125 2.984375 0 2.890625 0 Z M 1.375 0 "/></g></g></g><g fill="#f4dbd6" fill-opacity="1"><g transform="translate(191.228661, 280.896075)"><g><path d="M 1.375 0 C 1.28125 0 1.195312 -0.03125 1.125 -0.09375 C 1.0625 -0.164062 1.03125 -0.25 1.03125 -0.34375 L 1.03125 -9.453125 C 1.03125 -9.554688 1.0625 -9.640625 1.125 -9.703125 C 1.195312 -9.765625 1.28125 -9.796875 1.375 -9.796875 L 7.625 -9.796875 C 7.726562 -9.796875 7.8125 -9.765625 7.875 -9.703125 C 7.945312 -9.640625 7.984375 -9.554688 7.984375 -9.453125 L 7.984375 -8.25 C 7.984375 -8.15625 7.945312 -8.070312 7.875 -8 C 7.8125 -7.9375 7.726562 -7.90625 7.625 -7.90625 L 3.234375 -7.90625 L 3.234375 -5.546875 L 7.34375 -5.546875 C 7.445312 -5.546875 7.53125 -5.507812 7.59375 -5.4375 C 7.664062 -5.375 7.703125 -5.289062 7.703125 -5.1875 L 7.703125 -4 C 7.703125 -3.90625 7.664062 -3.828125 7.59375 -3.765625 C 7.53125 -3.703125 7.445312 -3.671875 7.34375 -3.671875 L 3.234375 -3.671875 L 3.234375 -0.34375 C 3.234375 -0.25 3.195312 -0.164062 3.125 -0.09375 C 3.0625 -0.03125 2.984375 0 2.890625 0 Z M 1.375 0 "/></g></g></g><g fill="#f4dbd6" fill-opacity="1"><g transform="translate(205.34992, 280.896075)"><g><path d="M 1.375 0 C 1.28125 0 1.195312 -0.03125 1.125 -0.09375 C 1.0625 -0.164062 1.03125 -0.25 1.03125 -0.34375 L 1.03125 -9.453125 C 1.03125 -9.554688 1.0625 -9.640625 1.125 -9.703125 C 1.195312 -9.765625 1.28125 -9.796875 1.375 -9.796875 L 7.734375 -9.796875 C 7.828125 -9.796875 7.90625 -9.765625 7.96875 -9.703125 C 8.039062 -9.640625 8.078125 -9.554688 8.078125 -9.453125 L 8.078125 -8.328125 C 8.078125 -8.222656 8.039062 -8.140625 7.96875 -8.078125 C 7.90625 -8.015625 7.828125 -7.984375 7.734375 -7.984375 L 3.1875 -7.984375 L 3.1875 -5.796875 L 7.421875 -5.796875 C 7.523438 -5.796875 7.609375 -5.757812 7.671875 -5.6875 C 7.734375 -5.625 7.765625 -5.546875 7.765625 -5.453125 L 7.765625 -4.40625 C 7.765625 -4.3125 7.734375 -4.226562 7.671875 -4.15625 C 7.609375 -4.09375 7.523438 -4.0625 7.421875 -4.0625 L 3.1875 -4.0625 L 3.1875 -1.8125 L 7.84375 -1.8125 C 7.945312 -1.8125 8.03125 -1.78125 8.09375 -1.71875 C 8.15625 -1.65625 8.1875 -1.570312 8.1875 -1.46875 L 8.1875 -0.34375 C 8.1875 -0.25 8.15625 -0.164062 8.09375 -0.09375 C 8.03125 -0.03125 7.945312 0 7.84375 0 Z M 1.375 0 "/></g></g></g><g fill="#f4dbd6" fill-opacity="1"><g transform="translate(219.779002, 280.896075)"><g><path d="M 1.375 0 C 1.28125 0 1.195312 -0.03125 1.125 -0.09375 C 1.0625 -0.164062 1.03125 -0.25 1.03125 -0.34375 L 1.03125 -9.453125 C 1.03125 -9.554688 1.0625 -9.640625 1.125 -9.703125 C 1.195312 -9.765625 1.28125 -9.796875 1.375 -9.796875 L 7.734375 -9.796875 C 7.828125 -9.796875 7.90625 -9.765625 7.96875 -9.703125 C 8.039062 -9.640625 8.078125 -9.554688 8.078125 -9.453125 L 8.078125 -8.328125 C 8.078125 -8.222656 8.039062 -8.140625 7.96875 -8.078125 C 7.90625 -8.015625 7.828125 -7.984375 7.734375 -7.984375 L 3.1875 -7.984375 L 3.1875 -5.796875 L 7.421875 -5.796875 C 7.523438 -5.796875 7.609375 -5.757812 7.671875 -5.6875 C 7.734375 -5.625 7.765625 -5.546875 7.765625 -5.453125 L 7.765625 -4.40625 C 7.765625 -4.3125 7.734375 -4.226562 7.671875 -4.15625 C 7.609375 -4.09375 7.523438 -4.0625 7.421875 -4.0625 L 3.1875 -4.0625 L 3.1875 -1.8125 L 7.84375 -1.8125 C 7.945312 -1.8125 8.03125 -1.78125 8.09375 -1.71875 C 8.15625 -1.65625 8.1875 -1.570312 8.1875 -1.46875 L 8.1875 -0.34375 C 8.1875 -0.25 8.15625 -0.164062 8.09375 -0.09375 C 8.03125 -0.03125 7.945312 0 7.84375 0 Z M 1.375 0 "/></g></g></g></svg>